<?xml version="1.0" encoding="UTF-8" standalone="no" ?>
<!DOCTYPE svg PUBLIC "-//W3C//DTD SVG 1.1//EN" "http://www.w3.org/Graphics/SVG/1.1/DTD/svg11.dtd">
<svg xmlns="http://www.w3.org/2000/svg" xmlns:xlink="http://www.w3.org/1999/xlink" version="1.1" width="1280" height="1024" viewBox="0 0 1280 1024" xml:space="preserve">
<desc>Created with Fabric.js 5.3.0</desc>
<defs>
</defs>
<g transform="matrix(1 0 0 1 640 512)" id="background-logo"  >
<rect style="stroke: none; stroke-width: 0; stroke-dasharray: none; stroke-linecap: butt; stroke-dashoffset: 0; stroke-linejoin: miter; stroke-miterlimit: 4; fill: rgb(244,244,252); fill-rule: nonzero; opacity: 1;"  paint-order="stroke"  x="-640" y="-512" rx="0" ry="0" width="1280" height="1024" />
</g>
<g transform="matrix(1.9211538461538462 0 0 1.9211538461538462 640 367.81388345893544)" id="logo-logo"  >
<g style=""  paint-order="stroke"   >
		<g transform="matrix(0.24169677284003965 0 0 -0.24169677284003965 0 -2.842171e-14)"  >
<path style="stroke: none; stroke-width: 1; stroke-dasharray: none; stroke-linecap: butt; stroke-dashoffset: 0; stroke-linejoin: miter; stroke-miterlimit: 4; fill: rgb(22,68,133); fill-rule: nonzero; opacity: 1;"  paint-order="stroke"  transform=" translate(-576.3797713844252, -549.4504154639435)" d="M 1140.62 363.93 C 1137.76 366.133 1134.9899999999998 368.379 1132.28 370.57800000000003 C 1126.53 375.23800000000006 1120.98 379.73400000000004 1115.03 383.391 C 1103.45 390.5 1092.27 397.21500000000003 1081.45 403.555 C 1070.55 409.949 1059.2 416.469 1047.5 423.055 C 1016.53 440.504 984.625 455.477 951.711 467.625 C 918.8050000000001 479.777 884.863 489.113 849.8050000000001 495.305 C 844.7890000000001 496.19100000000003 839.711 497.137 834.527 498.223 C 829.375 499.297 824.2850000000001 500.48 819.3090000000001 501.81600000000003 C 816.0040000000001 502.70300000000003 813.3130000000001 504.50800000000004 810.0000000000001 506.72700000000003 C 808.4380000000001 507.781 806.7190000000002 508.93 805.0160000000001 509.94100000000003 C 803.0200000000001 511.129 802.363 513.711 803.547 515.707 C 803.801 516.133 804.1170000000001 516.504 804.48 516.801 C 815.539 525.9960000000001 827.7810000000001 532.1450000000001 840 538.277 C 849.406 542.9960000000001 858.805 547.715 867.504 553.8280000000001 C 857.875 551.7030000000001 848.6410000000001 548.2890000000001 839.453 544.8980000000001 C 824.973 539.5510000000002 810.578 534.2300000000001 794.281 533.6210000000001 C 791.957 533.5390000000001 790.0039999999999 535.3590000000002 789.9219999999999 537.6840000000001 C 789.8789999999999 538.926 790.3749999999999 540.051 791.1949999999999 540.8550000000001 C 799.41 548.8630000000002 823.6129999999999 559.0550000000002 849.7379999999999 567.1520000000002 C 875.953 575.2770000000002 904.41 581.4450000000002 920.6949999999999 581.2660000000002 C 923.0229999999999 581.2500000000002 924.891 579.3480000000002 924.8749999999999 577.0200000000002 C 924.8709999999999 576.5350000000002 924.7889999999999 576.0700000000002 924.6329999999999 575.6330000000003 C 924.3159999999999 574.7540000000002 924.012 573.5510000000003 923.7299999999999 572.4180000000002 L 923.6839999999999 572.2460000000002 C 922.9059999999998 569.1170000000002 922.1329999999998 566.2270000000002 919.6409999999998 564.2070000000002 L 919.3949999999999 564.0230000000003 C 916.2189999999998 561.4730000000003 912.8629999999998 559.0000000000002 909.3949999999999 556.6450000000002 C 905.7619999999998 554.1880000000002 902.0549999999998 551.8710000000002 898.3239999999998 549.7420000000002 C 887.1949999999998 543.3980000000001 876.4409999999998 537.4450000000002 865.7029999999999 531.5040000000001 L 865.3979999999999 531.3520000000001 C 857.0229999999999 526.7230000000001 848.641 522.0820000000001 840.0429999999999 517.238 L 851.9529999999999 514.445 C 864.2579999999998 511.58200000000005 876.4489999999998 508.73400000000004 888.8159999999998 505.309 L 903.2419999999998 501.375 C 923.6599999999999 495.832 944.1209999999999 490.27 964.1759999999998 482.809 C 994.3199999999998 471.59000000000003 1023.0499999999998 457.62100000000004 1050.9399999999998 442.13300000000004 C 1078.7899999999997 426.66400000000004 1105.7699999999998 409.68800000000005 1132.5199999999998 392.379 C 1136.7699999999998 389.63300000000004 1140.8999999999999 386.629 1143.8299999999997 382.668 C 1147.0299999999997 378.344 1148.7099999999998 373.141 1147.5399999999997 366.41 C 1147.1499999999996 364.113 1144.9599999999998 362.57000000000005 1142.6699999999998 362.961 C 1141.8799999999999 363.098 1141.1799999999998 363.438 1140.62 363.93 z M 901.0659999999999 415.074 L 924.137 419.684 L 931.625 442.934 C 932.203 444.738 934.141 445.73400000000004 935.945 445.15200000000004 C 936.9490000000001 444.83200000000005 937.7030000000001 444.09400000000005 938.0740000000001 443.19100000000003 L 947.2620000000001 420.82800000000003 L 967.8480000000001 422.69500000000005 C 969.734 422.86300000000006 971.4100000000001 421.46900000000005 971.5780000000001 419.59000000000003 C 971.6560000000001 418.65200000000004 971.359 417.77000000000004 970.8090000000001 417.098 L 955.402 398.37100000000004 L 955.6990000000001 378.84000000000003 C 955.719 376.94500000000005 954.2030000000001 375.38700000000006 952.3050000000001 375.367 C 951.551 375.35900000000004 950.844 375.594 950.2700000000001 376.004 L 937.3670000000001 385.23 L 924.984 369.695 C 923.8050000000001 368.215 921.6410000000001 367.965 920.1560000000001 369.145 C 919.363 369.77299999999997 918.926 370.68399999999997 918.8670000000001 371.621 L 917.3090000000001 395.61699999999996 L 899.6680000000001 408.94499999999994 C 898.1480000000001 410.09399999999994 897.8480000000001 412.25399999999996 898.9960000000001 413.7699999999999 C 899.5230000000001 414.4729999999999 900.2660000000001 414.9099999999999 901.0660000000001 415.0739999999999 z M 868.7769999999999 348.59000000000003 L 891.848 353.199 L 899.336 376.45300000000003 C 899.914 378.25800000000004 901.848 379.254 903.6560000000001 378.672 C 904.6600000000001 378.35200000000003 905.4100000000001 377.613 905.7850000000001 376.70700000000005 L 914.9730000000001 354.34800000000007 L 935.5550000000001 356.2150000000001 C 937.445 356.3830000000001 939.1170000000001 354.9880000000001 939.2850000000001 353.1050000000001 C 939.3670000000001 352.1720000000001 939.066 351.2890000000001 938.5200000000001 350.6170000000001 L 923.113 331.8950000000001 L 923.4060000000001 312.3590000000001 C 923.4300000000001 310.4650000000001 921.9100000000001 308.9100000000001 920.0160000000001 308.8870000000001 C 919.2620000000001 308.87900000000013 918.5550000000001 309.11700000000013 917.9770000000001 309.52300000000014 L 905.0740000000001 318.75400000000013 L 892.691 303.2190000000001 C 891.5160000000001 301.73000000000013 889.3480000000001 301.4840000000001 887.8670000000001 302.6680000000001 C 887.07 303.2930000000001 886.6370000000001 304.20300000000015 886.5780000000001 305.14100000000013 L 885.0200000000001 329.1370000000001 L 867.3710000000001 342.4690000000001 C 865.8590000000002 343.6130000000001 865.5590000000001 345.7730000000001 866.7070000000001 347.2890000000001 C 867.2340000000002 347.9920000000001 867.9770000000001 348.4300000000001 868.7770000000002 348.5900000000001 z M 532.4219999999999 573.336 L 536.0589999999999 575.547 C 540.6449999999999 578.3240000000001 545.2379999999998 581.125 549.6169999999998 584.395 C 569.2769999999998 599.063 589.9999999999999 607.496 611.5939999999998 610.73 C 633.0779999999999 613.945 655.3749999999998 611.992 678.3199999999998 605.914 C 680.2189999999998 605.414 682.1479999999998 604.832 684.0469999999998 604.145 C 685.9729999999998 603.4449999999999 687.8869999999998 602.605 689.7539999999998 601.566 C 714.2659999999998 587.945 735.9259999999998 571.816 753.4259999999998 552.09 C 771.0039999999998 532.289 784.3669999999998 508.89500000000004 792.1949999999998 480.84400000000005 C 792.9409999999998 478.16 791.9219999999998 475.809 791.0079999999998 473.72700000000003 L 790.4729999999998 472.555 C 789.7889999999999 471.21500000000003 788.8949999999999 470.688 787.3589999999998 469.809 L 785.3399999999998 468.56600000000003 C 783.5549999999998 467.39500000000004 781.1989999999998 467.75800000000004 779.8399999999998 469.33200000000005 L 778.0229999999998 471.23400000000004 C 776.2419999999998 473.02700000000004 774.3829999999998 474.91 773.0899999999998 477.48400000000004 C 770.2809999999998 483.09400000000005 767.8319999999998 488.46900000000005 765.3949999999998 493.84400000000005 C 763.5229999999998 497.96500000000003 761.6369999999997 502.11300000000006 760.0349999999997 505.46100000000007 C 752.5159999999997 521.1880000000001 742.2699999999998 534.4920000000001 730.3709999999998 546.1640000000001 C 718.3789999999998 557.9180000000001 704.6719999999998 568.0470000000001 690.3319999999998 577.3360000000001 C 676.8239999999997 586.0940000000002 662.3159999999998 590.5230000000001 647.4099999999997 591.8320000000001 C 632.3359999999998 593.1640000000001 616.8239999999997 591.3240000000001 601.4999999999998 587.5630000000001 L 601.3359999999998 587.5310000000001 C 580.5859999999998 582.418 563.3009999999998 573.176 549.2729999999998 560.234 C 534.7459999999998 546.8280000000001 523.6599999999999 529.3910000000001 515.8089999999997 508.40200000000004 C 514.9919999999997 506.22700000000003 512.5629999999998 505.117 510.38299999999975 505.92600000000004 C 509.84399999999977 506.129 509.37099999999975 506.43000000000006 508.97699999999975 506.80100000000004 C 502.81999999999977 512.2620000000001 503.17199999999974 518.1450000000001 503.55099999999976 524.4380000000001 C 503.75799999999975 527.8870000000001 503.97699999999975 531.5230000000001 502.52699999999976 534.8320000000001 L 372.81299999999976 614.9530000000001 C 370.8359999999998 616.1720000000001 370.2229999999998 618.7700000000001 371.44099999999975 620.7500000000001 C 372.26999999999975 622.0940000000002 373.72999999999973 622.8090000000001 375.20699999999977 622.7460000000001 C 379.2379999999998 622.57 383.0159999999998 622.57 386.24599999999975 622.57 C 392.18399999999974 622.5590000000001 396.41399999999976 622.5550000000001 400.60899999999975 621.2660000000001 C 418.83999999999975 615.648 437.12099999999975 609.8710000000001 455.40199999999976 604.023 C 474.52699999999976 597.9060000000001 492.42599999999976 592.0980000000001 510.0309999999998 586.379 C 514.7339999999998 584.852 519.3829999999998 583.047 523.6759999999998 580.4730000000001 C 526.8669999999998 578.5630000000001 529.8319999999998 576.2420000000001 532.4219999999998 573.3360000000001 z M 246.996 1008.75 C 250.363 1016.16 256.031 1019.23 261.523 1022.19 C 265.07000000000005 1024.1100000000001 268.523 1025.98 270.516 1029.3600000000001 L 269.598 1029.39 C 264.5 1029.5500000000002 259.52000000000004 1029.71 254.613 1030.41 C 249.867 1031.0900000000001 245.273 1032.3500000000001 240.996 1033.53 L 236.043 1034.85 C 235.094 1035.08 234.30100000000002 1035.62 233.734 1036.34 C 231.74200000000002 1038.6499999999999 229.84400000000002 1041.07 227.996 1043.4399999999998 C 224.09400000000002 1048.4299999999998 220.36700000000002 1053.1899999999998 215.887 1056.4699999999998 C 212.176 1059.1799999999998 207.121 1060.7399999999998 201.344 1062.5199999999998 C 198.594 1063.3599999999997 195.688 1064.2599999999998 192.809 1065.2799999999997 L 187.168 1064.3899999999996 C 181.02 1063.4299999999996 173.80100000000002 1062.3099999999997 166.668 1060.7099999999996 C 162.465 1059.7799999999995 158.48000000000002 1058.3799999999997 155.043 1056.2399999999996 C 151.758 1054.1999999999996 148.945 1051.4199999999996 146.883 1047.6299999999997 C 144.328 1042.9499999999996 142.848 1038.2899999999997 142.602 1033.6799999999996 C 142.387 1029.6599999999996 143.105 1025.6099999999997 144.848 1021.5199999999996 C 150.199 1020.1199999999997 155.82000000000002 1021.2899999999996 161.34400000000002 1022.4499999999996 C 169.33200000000002 1024.1299999999997 177.18400000000003 1025.7799999999995 185.58200000000002 1021.4199999999996 L 185.96900000000002 1021.1999999999996 C 187.31300000000002 1020.3699999999995 187.85200000000003 1019.3399999999996 188.43000000000004 1018.2099999999996 L 188.73000000000005 1017.6299999999995 C 189.10900000000004 1017.0299999999995 189.32000000000005 1016.3699999999995 189.37100000000004 1015.7099999999996 C 190.09800000000004 1007.2899999999996 185.05100000000004 1006.6099999999996 180.34000000000003 1005.9699999999996 L 178.71900000000002 1005.6999999999996 C 172.645 1004.0699999999996 166.246 1002.5099999999995 159.85900000000004 1000.9599999999996 C 148.09800000000004 998.0859999999996 136.33200000000005 995.2149999999996 124.82000000000004 991.4689999999996 C 117.90600000000003 989.2189999999996 114.36300000000003 987.6519999999996 112.79700000000004 984.7069999999997 C 111.27300000000004 981.8009999999997 110.80500000000004 977.0229999999997 110.49200000000003 969.0119999999996 C 112.78100000000003 969.6759999999996 115.02700000000003 970.7229999999996 117.25800000000004 971.7579999999996 C 119.88300000000004 972.9769999999996 122.50000000000004 974.1989999999996 125.32800000000003 974.9649999999996 L 136.25400000000002 977.8399999999996 C 140.02700000000002 978.7969999999996 143.73000000000002 979.6909999999996 147.27 980.4689999999996 L 147.633 980.5349999999996 C 157.75 982.7579999999996 167.91000000000003 984.6519999999996 178.086 985.8279999999996 C 188.473 987.0269999999996 198.98000000000002 987.5079999999996 209.625 986.8909999999996 C 224.543 986.0199999999996 238.117 982.4019999999996 250.301 976.1209999999996 C 262.555 969.8009999999996 273.387 960.7969999999997 282.762 949.1839999999996 C 290.199 939.9769999999996 294.219 929.6019999999996 294.891 918.9609999999997 C 295.56600000000003 908.1949999999997 292.824 897.1879999999996 286.75 886.8479999999997 C 284.859 883.6329999999997 281.984 881.8869999999997 278.066 881.7499999999998 C 274.996 881.6449999999998 271.301 882.6449999999998 266.941 884.8239999999997 C 265.164 885.7069999999998 264.29299999999995 887.6799999999997 264.715 889.5309999999997 L 266.039 895.2849999999997 C 267.043 899.6019999999997 268.078 904.0079999999997 268.914 908.0389999999998 C 270.414 915.2029999999997 269.93399999999997 921.6559999999997 267.76599999999996 927.3909999999997 C 265.46099999999996 933.4999999999998 261.20699999999994 938.9259999999997 255.36699999999996 943.6719999999997 C 248.65999999999997 949.1169999999997 241.74599999999995 953.8709999999996 234.23799999999997 957.2729999999997 C 226.84799999999998 960.6289999999997 218.84399999999997 962.6989999999997 209.86299999999997 962.8669999999997 C 197.30099999999996 963.1129999999997 184.89799999999997 962.6679999999998 172.56999999999996 961.5119999999997 C 160.32799999999997 960.3629999999997 148.06999999999996 958.4879999999997 135.71099999999996 955.8479999999997 C 133.92599999999996 955.4649999999997 132.19899999999996 954.9729999999997 130.54699999999997 954.3949999999998 C 121.01199999999997 951.0349999999997 112.57799999999997 944.3049999999997 107.09799999999997 935.7729999999998 C 101.69499999999996 927.3589999999998 99.18749999999997 917.1639999999998 101.41799999999998 906.7499999999998 C 101.74999999999997 905.1719999999998 102.19499999999998 903.5899999999998 102.74599999999998 902.0349999999997 L 114.77699999999999 867.4489999999997 C 115.52699999999999 865.2579999999997 114.36299999999999 862.8549999999997 112.16399999999999 862.1019999999997 C 111.48399999999998 861.8709999999998 110.78899999999999 861.8199999999997 110.11699999999999 861.9299999999997 C 109.30499999999999 862.0509999999997 108.31299999999999 862.1089999999997 107.398 862.1559999999997 C 104.39099999999999 862.3159999999997 101.723 862.4609999999997 99.7422 864.7849999999997 C 91.6211 874.2499999999998 86.1758 884.5229999999997 83.3008 895.4879999999997 C 80.375 906.6169999999997 80.1211 918.4409999999997 82.3945 930.8359999999997 C 83.1445 934.9529999999996 84.1094 938.7459999999996 85.0625 942.5159999999996 C 86.3516 947.6169999999996 87.6523 952.7299999999997 88.2578 957.7579999999996 C 90.4961 976.2619999999996 91.8516 985.9449999999996 97.0664 993.7419999999996 C 102.016 1001.1299999999997 109.805 1005.8799999999997 124.465 1013.8499999999996 L 123.977 1017.4999999999995 C 123.293 1022.5399999999995 122.59400000000001 1027.6899999999996 122.629 1032.9999999999995 C 122.703 1044.1299999999997 125.867 1053.8899999999996 131.715 1061.6999999999996 C 137.547 1069.5099999999995 146.035 1075.3599999999997 156.75400000000002 1078.6899999999996 C 168.42600000000002 1082.3099999999995 180.18400000000003 1085.5699999999997 192.31600000000003 1088.9299999999996 L 208.73400000000004 1093.5099999999995 C 210.76600000000005 1094.0799999999995 212.87100000000004 1093.0499999999995 213.71900000000005 1091.1899999999996 L 219.89500000000004 1078.7099999999996 L 241.97300000000004 1076.6099999999997 C 243.66400000000004 1076.4499999999996 245.02300000000005 1075.2999999999997 245.55500000000004 1073.7999999999997 L 246.29700000000003 1071.9299999999998 C 247.04700000000003 1070.09 247.85200000000003 1068.1499999999999 248.16800000000003 1065.8799999999999 C 249.13300000000004 1058.9499999999998 250.94900000000004 1054.4999999999998 253.80100000000004 1052.4599999999998 C 256.47700000000003 1050.5599999999997 260.62100000000004 1050.62 266.41400000000004 1052.5699999999997 C 270.80100000000004 1054.0599999999997 275.17600000000004 1056.0399999999997 279.94900000000007 1058.1799999999996 L 287.41800000000006 1061.4799999999996 C 289.5590000000001 1062.3899999999996 292.0470000000001 1061.3899999999996 292.9530000000001 1059.2499999999995 L 293.1640000000001 1058.6299999999997 C 295.4610000000001 1049.6099999999997 296.5430000000001 1041.1499999999996 295.4410000000001 1033.3399999999997 C 294.2850000000001 1025.1899999999996 290.7970000000001 1017.8799999999997 283.9410000000001 1011.5599999999997 C 278.6250000000001 1006.6599999999997 271.7150000000001 1004.0099999999998 264.97300000000007 1001.4399999999997 L 260.46900000000005 999.6759999999997 C 257.523 998.4799999999997 255.13300000000004 999.8549999999997 252.17200000000005 1001.5499999999997 C 251.18800000000005 1002.0999999999997 250.11700000000005 1002.7099999999997 249.10900000000007 1003.1599999999997 C 246.98800000000006 1004.1199999999998 246.03900000000007 1006.6299999999998 246.99600000000007 1008.7499999999998 z M 597.914 394.40599999999995 L 593.34 389.70699999999994 C 591.7230000000001 388.04299999999995 589.043 387.99999999999994 587.375 389.62499999999994 L 587.277 389.7269999999999 C 584.441 392.6719999999999 583.7460000000001 395.49999999999994 584.6170000000001 398.23799999999994 C 585.2500000000001 400.2149999999999 586.6680000000001 401.77299999999997 588.6370000000001 403.03499999999997 C 590.3750000000001 407.24199999999996 592.9100000000001 410.703 596.043 413.41799999999995 C 599.688 416.56299999999993 604.129 418.67599999999993 609.063 419.715 C 614.414 420.84799999999996 619.914 421.82399999999996 626.145 421.47299999999996 C 632.418 421.11699999999996 639.266 419.40599999999995 647.1089999999999 415.145 C 649.1519999999999 414.03499999999997 649.9019999999999 411.47299999999996 648.7929999999999 409.43 C 648.1479999999999 408.246 647.0199999999999 407.5 645.7849999999999 407.293 C 640.4999999999999 406.402 635.3439999999998 405.91 630.4219999999998 405.445 C 617.4609999999998 404.223 606.1599999999999 403.14799999999997 598.0979999999998 394.594 z M 655.02 474.20699999999994 L 630.941 471.72999999999996 C 628.629 471.496 626.5550000000001 473.18399999999997 626.316 475.496 C 626.188 476.75 626.629 477.938 627.426 478.79699999999997 C 633.844 485.676 638.133 489.207 642.8090000000001 489.664 C 647.863 490.164 651.883 487.281 657.6290000000001 481.324 C 659.2420000000002 479.64500000000004 659.1880000000001 476.973 657.5120000000002 475.35900000000004 C 656.8050000000002 474.684 655.9260000000002 474.30100000000004 655.0200000000002 474.20700000000005 z M 467.434 388.574 C 476.305 401.301 488.922 408.56600000000003 502.38700000000006 416.324 L 509.59400000000005 420.527 C 511.59800000000007 421.711 514.191 421.04699999999997 515.375 419.039 C 515.973 418.031 516.098 416.871 515.82 415.82 C 513.609 407.438 509.31600000000003 400.617 502.02700000000004 394.367 C 495.75000000000006 388.97700000000003 487.21500000000003 384.043 475.79300000000006 378.88300000000004 L 477.78900000000004 373.13300000000004 L 510.75800000000004 384.17600000000004 C 512.395 384.72300000000007 514.1370000000001 384.20700000000005 515.2230000000001 383.00000000000006 C 518.797 379.05100000000004 519.4730000000001 375.6720000000001 518.4770000000001 372.7540000000001 C 517.4920000000001 369.8910000000001 515.0550000000001 368.11300000000006 512.2420000000001 366.8590000000001 C 505.9840000000001 364.0700000000001 500.08200000000005 361.6210000000001 493.6450000000001 358.9530000000001 L 489.1880000000001 357.0940000000001 C 495.5160000000001 344.3130000000001 503.8320000000001 334.9410000000001 513.8240000000001 328.1560000000001 C 524.2850000000001 321.0550000000001 536.715 316.68400000000014 550.7230000000001 314.10500000000013 L 552.0430000000001 315.85900000000015 C 554.1330000000002 318.63700000000017 556.0660000000001 321.1990000000001 557.6680000000001 323.51200000000017 C 559.3440000000002 325.9340000000002 561.0080000000002 328.57800000000015 562.6800000000001 331.22700000000015 L 564.9490000000001 334.81600000000014 C 565.883 336.3050000000001 567.5980000000001 337.00800000000015 569.23 336.73000000000013 L 569.395 336.70300000000015 C 562.313 350.74200000000013 557.41 365.40200000000016 553.684 380.77700000000016 C 549.309 398.81600000000014 546.5659999999999 417.80100000000016 543.8199999999999 437.93800000000016 C 543.512 440.24200000000013 545.1329999999999 442.36700000000013 547.438 442.67600000000016 C 548.8199999999999 442.86300000000017 550.141 442.35200000000015 551.039 441.42200000000014 C 557.016 435.1800000000001 561.063 429.19500000000016 563.723 423.27700000000016 C 566.41 417.2930000000002 567.664 411.42600000000016 568.055 405.4730000000002 C 569.102 389.4060000000002 572.5939999999999 374.5590000000002 578.699 360.9650000000002 C 584.793 347.3980000000002 593.535 335.0080000000002 605.086 323.8200000000002 C 606.875 322.0820000000002 607.0310000000001 320.1450000000002 607.1990000000001 317.80500000000023 C 607.2460000000001 317.1130000000002 607.3090000000001 316.34000000000026 607.422 315.67200000000025 C 607.813 313.3750000000002 606.2660000000001 311.19100000000026 603.969 310.80500000000023 L 603.0310000000001 310.7500000000002 C 594.2930000000001 310.69900000000024 589.5740000000001 315.76600000000025 584.9300000000001 320.7620000000002 C 582.859 322.9880000000002 580.797 325.2070000000002 578.4920000000001 326.51600000000025 L 564.3360000000001 301.20300000000026 C 563.7970000000001 300.23400000000026 562.9380000000001 299.5630000000003 561.9570000000001 299.24600000000027 C 550.3200000000002 295.4380000000003 539.8160000000001 294.8870000000003 529.8750000000001 296.9180000000003 C 520.0160000000001 298.9380000000003 510.8320000000001 303.4880000000003 501.7270000000001 309.91400000000027 C 495.2150000000001 314.51600000000025 489.40600000000006 319.48000000000025 484.2540000000001 325.0000000000003 C 479.09400000000005 330.5310000000003 474.58200000000005 336.6370000000003 470.66800000000006 343.5000000000003 C 463.6170000000001 355.8750000000003 456.12500000000006 368.5040000000003 447.77700000000004 382.5820000000003 L 435.83200000000005 402.79700000000025 C 434.65600000000006 404.8010000000003 435.32800000000003 407.38300000000027 437.33200000000005 408.55900000000025 C 438.42600000000004 409.20300000000026 439.69500000000005 409.28900000000027 440.81300000000005 408.91400000000027 C 450.91 405.4690000000003 456.379 399.64500000000027 461.23400000000004 394.46500000000026 C 463.336 392.22700000000026 465.31300000000005 390.12100000000027 467.434 388.57400000000024 z M 607.492 488.809 C 607.4409999999999 496.52000000000004 609.602 501.824 613.367 505.434 C 617.117 509.031 622.25 510.68800000000005 628.199 511.21500000000003 C 635.887 511.898 643.016 510.89500000000004 650.2189999999999 508.71900000000005 L 650.4179999999999 508.648 C 657.3629999999999 506.535 664.3549999999999 503.34000000000003 672.0469999999999 499.547 C 674.1329999999999 498.516 674.992 495.98400000000004 673.9649999999999 493.89500000000004 C 673.5199999999999 492.98400000000004 672.7769999999999 492.30500000000006 671.9139999999999 491.91 C 670.0699999999998 491.074 668.5779999999999 490.27700000000004 667.3749999999999 489.625 C 664.4919999999998 488.074 662.7189999999999 487.137 660.1909999999999 487.496 C 657.4219999999999 487.895 654.5699999999999 488.33599999999996 651.6479999999999 488.97999999999996 C 648.6719999999999 489.63699999999994 645.7379999999999 490.508 642.9689999999999 491.746 C 637.414 494.234 632.414 495.031 627.871 494.08599999999996 C 623.336 493.133 619.0269999999999 490.37899999999996 614.828 485.74999999999994 C 613.2579999999999 484.03099999999995 610.586 483.90199999999993 608.8629999999999 485.47299999999996 C 607.8979999999999 486.35499999999996 607.434 487.59 607.492 488.80899999999997 z M 560.742 454.07800000000003 L 578.93 458.711 C 581.1909999999999 459.277 583.496 457.914 584.0659999999999 455.652 L 591.262 432.473 L 608.1719999999999 430.473 C 610.4839999999999 430.199 612.1449999999999 428.094 611.8709999999999 425.781 C 611.7109999999999 424.414 610.9099999999999 423.277 609.8049999999998 422.633 C 597.8909999999998 415.668 591.2499999999999 412.52299999999997 585.0549999999998 415.29699999999997 C 579.6449999999999 417.719 576.3399999999998 424.29299999999995 571.5349999999999 436.57 L 562.8949999999999 435.637 C 560.7769999999998 435.418 558.8549999999999 436.797 558.3549999999999 438.809 L 556.4379999999999 446.41400000000004 C 554.9059999999998 447.96500000000003 554.7969999999999 450.46500000000003 556.2459999999999 452.141 L 556.5549999999998 452.49600000000004 C 557.1129999999998 453.23400000000004 557.9179999999999 453.79300000000006 558.8869999999998 454.035 C 559.5159999999998 454.19100000000003 560.1449999999999 454.19500000000005 560.7419999999998 454.07800000000003 z M 731.02 410.95300000000003 L 732.77 411.918 C 734.559 412.934 736.34 413.957 738.559 414.473 L 738.688 414.5 C 757.191 418.832 757.938 419.012 755.773 437.531 L 745.039 442.184 C 742.906 443.105 741.922 445.586 742.8439999999999 447.71500000000003 C 743.141 448.398 743.5939999999999 448.961 744.141 449.38300000000004 L 746.1479999999999 451.129 C 747.93 452.77700000000004 749.5269999999999 454.23400000000004 751.867 454.99600000000004 C 756.52 456.51200000000006 760.742 456.38300000000004 764.395 454.73800000000006 C 768.066 453.07800000000003 770.98 449.95700000000005 773.004 445.52000000000004 C 775.6800000000001 439.65200000000004 777.477 433.641 777.4920000000001 427.629 C 777.508 421.387 775.633 415.254 770.9300000000001 409.461 C 766.1370000000001 403.555 760.523 399.313 754.113 397.27000000000004 C 748.0630000000001 395.34000000000003 741.4140000000001 395.41 734.1800000000001 397.90600000000006 C 731.5160000000001 398.8090000000001 730.719 400.8520000000001 729.777 403.2540000000001 C 729.523 403.8950000000001 729.2460000000001 404.6050000000001 728.961 405.1520000000001 C 727.895 407.2230000000001 728.711 409.7730000000001 730.777 410.8360000000001 z M 754.5 364.11300000000006 L 756.773 354.21900000000005 C 758.465 346.773 760.16 339.309 762.2230000000001 332.16 L 762.273 331.973 C 763.629 327.277 765.203 322.516 766.871 317.74600000000004 C 768.461 313.20300000000003 770.289 308.32000000000005 772.137 303.40600000000006 C 773.4409999999999 299.94500000000005 775.6719999999999 296.6290000000001 777.887 293.33200000000005 C 781.895 287.36300000000006 785.8979999999999 281.40600000000006 786.18 273.38700000000006 C 786.2379999999999 271.69900000000007 785.2969999999999 270.20700000000005 783.887 269.4800000000001 C 775.059 264.6050000000001 772.246 268.8400000000001 769.309 273.2890000000001 L 768.723 274.1680000000001 C 759.7189999999999 287.2620000000001 753.5509999999999 301.19100000000014 749.891 315.7070000000001 C 746.02 331.0430000000001 744.9219999999999 347.0470000000001 746.1719999999999 363.4530000000001 C 746.3399999999999 365.78100000000006 748.3709999999999 367.5230000000001 750.699 367.3550000000001 C 752.578 367.21900000000005 754.078 365.8590000000001 754.5 364.11300000000006 z M 207.86699999999996 911.6880000000001 L 202.35899999999995 910.6090000000002 C 199.16799999999995 909.9690000000002 196.78899999999996 909.4840000000002 194.33199999999997 909.3160000000001 C 191.97299999999996 909.1520000000002 189.46099999999996 909.1640000000001 186.96899999999997 909.1720000000001 C 183.92599999999996 909.1840000000001 180.88299999999995 909.2030000000001 178.02299999999997 908.8240000000002 C 165.58199999999997 907.1910000000001 157.82399999999996 904.9800000000001 152.51199999999997 899.9840000000002 C 147.14799999999997 894.9380000000001 143.69099999999997 886.6290000000001 139.91799999999998 872.8550000000001 C 144.46499999999997 876.2270000000001 149.97699999999998 878.6600000000001 156.48799999999997 879.7700000000001 C 159.41799999999998 880.2700000000001 161.03899999999996 882.3090000000001 162.91799999999998 884.6990000000001 L 164.18399999999997 886.258 C 169.15999999999997 892.359 173.78499999999997 895.875 179.02299999999997 896.859 L 179.21499999999997 896.8910000000001 C 184.49999999999997 897.8130000000001 189.87099999999998 896.109 196.25399999999996 891.797 L 197.52699999999996 890.938 C 211.23799999999997 881.6949999999999 225.05099999999996 872.379 235.31299999999996 858.137 C 240.19899999999996 851.3399999999999 245.22299999999996 844.637 250.34399999999997 838.0939999999999 C 255.47299999999996 831.5859999999999 260.777 825.137 266.277 818.8159999999999 C 271.238 813.1209999999999 274.543 806.8319999999999 276.844 800.2539999999999 C 279.082 793.8399999999999 280.336 787.1949999999999 281.25 780.5469999999999 L 281.574 778.1879999999999 C 283.855 761.5629999999999 286.13300000000004 744.9999999999999 290.809 728.9999999999999 C 291.523 726.5389999999999 290.641 724.7619999999998 289.55100000000004 722.5589999999999 L 289.42600000000004 722.3239999999998 C 289.16 721.7849999999999 288.867 721.1759999999998 288.59000000000003 720.4449999999998 C 287.76200000000006 718.2699999999999 285.31600000000003 717.1679999999998 283.141 717.9999999999998 C 282.762 718.1409999999997 282.418 718.3359999999998 282.10200000000003 718.5699999999998 L 280.406 719.4879999999998 C 277.85200000000003 720.8049999999998 275.438 722.0469999999998 274.629 725.0199999999999 L 271.867 734.7699999999999 C 268.64500000000004 745.9999999999999 265.41 757.2809999999998 264.059 768.9569999999999 C 262.98400000000004 778.2539999999999 261.18800000000005 786.9529999999999 257.96500000000003 794.9299999999998 C 254.79300000000003 802.7809999999998 250.21100000000004 810.0159999999998 243.51600000000002 816.5659999999998 C 239.70700000000002 820.2969999999998 236.281 824.4339999999999 233.098 828.7419999999998 C 229.92600000000002 833.0309999999998 227.02700000000002 837.4339999999999 224.234 841.7849999999999 C 215.473 855.4299999999998 202.453 864.8789999999999 189.453 874.3279999999999 L 186.484 876.4839999999998 C 186.30100000000002 876.5549999999998 185.102 876.5629999999998 183.555 876.5699999999998 L 183.348 876.5549999999998 C 183.34 874.7969999999998 183.348 873.2659999999998 183.53500000000003 873.0389999999999 C 187.19100000000003 868.5389999999999 191.46500000000003 864.3319999999999 195.72700000000003 860.1369999999998 L 200.68800000000005 855.2069999999999 C 206.68800000000005 849.1089999999999 211.85900000000004 842.6519999999999 215.59000000000003 835.4059999999998 C 219.38300000000004 828.0309999999998 221.67200000000003 819.8669999999998 221.80100000000004 810.5039999999998 C 221.86700000000005 805.5939999999998 223.12900000000005 800.4179999999998 224.38700000000006 795.2459999999998 C 225.06600000000006 792.4219999999998 225.76200000000006 789.5819999999998 226.30500000000006 786.5549999999997 C 226.83200000000005 783.6209999999998 227.13700000000006 780.9689999999997 227.59800000000007 776.9529999999997 L 228.62500000000006 768.3279999999997 C 228.90200000000004 766.0159999999997 227.25000000000006 763.9019999999997 224.93800000000005 763.6249999999998 C 223.38300000000004 763.4379999999998 221.91400000000004 764.1209999999998 221.03500000000005 765.2929999999998 C 213.89100000000005 773.4449999999998 209.87100000000007 781.2499999999998 207.45700000000005 788.7889999999998 C 205.04300000000006 796.3319999999998 204.27000000000004 803.4489999999997 203.53900000000004 810.4099999999997 C 202.86700000000005 816.8399999999997 201.35500000000005 822.6799999999997 198.83200000000005 827.9059999999997 C 196.39800000000005 832.9379999999998 192.96100000000004 837.4609999999997 188.35900000000004 841.4449999999997 C 189.09400000000005 829.3589999999997 188.81600000000003 817.1089999999997 180.73400000000004 804.1329999999997 C 179.50400000000005 802.1559999999997 176.89800000000002 801.5469999999997 174.92200000000003 802.7769999999997 L 163.76600000000002 811.8949999999998 C 157.06300000000002 811.9729999999997 153.50400000000002 806.8239999999997 149.746 801.3789999999998 C 148.24200000000002 799.1909999999998 146.691 796.9489999999998 144.836 794.7699999999998 C 143.33200000000002 793.0039999999998 140.67200000000003 792.7889999999998 138.906 794.2929999999998 C 138.55100000000002 794.5979999999997 138.258 794.9449999999998 138.02700000000002 795.3279999999997 C 137.441 796.2729999999998 136.906 797.3519999999997 136.41400000000002 798.3319999999998 C 135.80900000000003 799.5199999999998 135.29700000000003 800.5389999999998 135.02 800.7379999999997 C 118.66400000000002 812.4879999999997 121.453 829.0429999999997 123.828 843.1879999999998 L 124.254 845.7149999999998 C 125.668 854.2229999999998 129.207 862.2729999999998 135.02700000000002 868.4919999999998 L 135.86700000000002 869.3629999999998 C 135.46500000000003 869.3549999999998 135.05100000000002 869.3949999999999 134.64100000000002 869.5079999999998 C 133.49200000000002 869.8199999999998 132.58200000000002 870.5859999999998 132.055 871.5509999999998 C 131.16400000000002 873.1759999999998 130.191 874.7029999999999 129.324 876.0779999999999 C 127.34000000000002 879.1879999999999 125.73800000000001 881.7189999999998 125.19100000000002 884.9489999999998 C 124.03900000000002 891.7729999999998 125.00000000000001 897.9489999999998 127.55900000000001 903.3399999999998 C 130.28900000000002 909.0979999999998 134.84400000000002 913.8789999999998 140.566 917.5349999999999 C 149.879 923.4769999999999 159.684 927.7029999999999 169.945 929.5429999999999 C 180.297 931.3949999999999 191.07 930.8199999999999 202.203 927.1249999999999 C 204.30100000000002 926.4259999999999 205.223 925.2029999999999 207.008 922.8199999999999 C 207.816 921.7379999999999 208.895 920.305 210.37900000000002 918.5429999999999 C 211.87500000000003 916.7699999999999 211.645 914.1049999999999 209.86700000000002 912.6089999999999 C 209.27300000000002 912.1089999999999 208.58200000000002 911.8009999999999 207.86700000000002 911.6879999999999 z M 786.414 236.539 C 789.3439999999999 226.35199999999998 788.543 217.28099999999998 785.875 208.809 C 783.297 200.621 779.012 193.16 774.711 185.738 C 772.2810000000001 181.547 769.348 177.738 766.445 173.98 C 759.168 162.33999999999997 745.027 146.46499999999997 735.8480000000001 134.71099999999998 C 734.672 133.19899999999998 732.6600000000001 132.71499999999997 730.965 133.38699999999997 C 725.504 135.32799999999997 723.238 138.49199999999996 722.688 141.96899999999997 L 722.656 142.17599999999996 C 722.2299999999999 145.33199999999997 723.3829999999999 148.34799999999996 724.7379999999999 150.77699999999996 C 728.1949999999999 157.01599999999996 732.3979999999999 162.59799999999996 736.563 168.12899999999996 L 737.742 169.67599999999996 C 740.6909999999999 173.60899999999995 743.684 177.31999999999996 746.656 181.01999999999995 C 752.371 188.11299999999994 758.0939999999999 195.22299999999996 762.7539999999999 202.85199999999995 C 767.156 210.05899999999994 770.5039999999999 218.12899999999993 773.848 226.19899999999996 L 773.9409999999999 226.40199999999996 C 775.4529999999999 230.06299999999996 776.9689999999999 233.71899999999997 778.4999999999999 237.11699999999996 C 779.4569999999999 239.23799999999997 781.9609999999999 240.18799999999996 784.0859999999999 239.22999999999996 C 785.262 238.69899999999996 786.0779999999999 237.69099999999997 786.4139999999999 236.53899999999996 z M 318.918 120.87499999999999 L 315.527 122.54699999999998 C 309.863 125.33599999999998 304.76599999999996 127.85899999999998 299.74199999999996 130.45299999999997 C 297.67199999999997 131.51599999999996 297.246 133.10499999999996 296.83599999999996 134.68399999999997 L 296.734 135.05499999999998 C 295.871 137.21499999999997 296.92199999999997 139.67999999999998 299.082 140.539 L 299.508 140.684 C 306.09799999999996 142.793 310.902 144.176 315.055 144.547 C 319.813 144.969 323.523 144.117 327.402 141.633 C 330.51599999999996 139.62900000000002 333.965 137.01600000000002 336.707 134.031 C 339.066 131.461 340.953 128.578 341.781 125.492 C 345.945 110.031 355.957 98.2852 366.094 86.39450000000001 L 367.086 85.23440000000001 C 368.60900000000004 83.4492 369.52000000000004 81.48830000000001 370.35900000000004 79.67190000000001 L 371.20700000000005 77.918 C 371.8670000000001 76.6953 371.85900000000004 75.2852 371.30500000000006 74.11720000000001 C 370.6910000000001 72.668 369.97300000000007 71.44530000000002 369.17600000000004 70.44530000000002 C 367.45700000000005 68.27340000000002 365.38300000000004 67.08200000000002 363.19100000000003 66.63670000000002 L 362.97700000000003 66.59380000000002 C 360.93 66.22660000000002 358.867 66.55080000000001 356.98 67.31640000000002 C 355.695 67.83590000000001 354.488 68.57030000000002 353.418 69.41410000000002 C 346.957 74.55080000000002 341.109 80.25780000000002 336.105 86.62110000000001 C 331.06600000000003 93.02340000000001 326.848 100.09400000000001 323.672 107.918 C 322.27000000000004 111.375 320.93 115.18 319.73400000000004 118.59 z M 589.695 352.34 C 593.734 361.08599999999996 598.504 366.97299999999996 603.6800000000001 371.17999999999995 C 608.8480000000001 375.37499999999994 614.3320000000001 377.82399999999996 619.8670000000001 379.7459999999999 C 625.297 381.63699999999994 630.922 383.3399999999999 636.5310000000001 384.5659999999999 C 642.238 385.8089999999999 648.0820000000001 386.6169999999999 653.9300000000001 386.6989999999999 C 665.629 386.8749999999999 676.8240000000001 387.9139999999999 686.8130000000001 391.3159999999999 C 696.5000000000001 394.6169999999999 705.1290000000001 400.2269999999999 712.0820000000001 409.5779999999999 C 713.3130000000001 411.23799999999994 715.5390000000001 411.7339999999999 717.3320000000001 410.8519999999999 C 726.2340000000002 406.42599999999993 725.363 401.65199999999993 723.0310000000001 396.96899999999994 L 722.0310000000001 395.12899999999996 C 718.9300000000001 389.676 714.8870000000001 385.289 710.211 381.852 C 705.098 378.094 699.246 375.469 693.098 373.80499999999995 L 692.91 373.7579999999999 C 686.23 371.9529999999999 679.3589999999999 370.30099999999993 672.3589999999999 368.98799999999994 C 665.3159999999999 367.67199999999997 658.199 366.71099999999996 651.102 366.31299999999993 C 643.184 365.8669999999999 635.621 364.99999999999994 628.5939999999999 362.9529999999999 C 621.742 360.95699999999994 615.285 357.78899999999993 609.3789999999999 352.73799999999994 C 607.6049999999999 351.2269999999999 605.7929999999999 350.58199999999994 602.3979999999999 349.3829999999999 C 600.5699999999999 348.73799999999994 598.1879999999999 347.8979999999999 595.0939999999999 346.6599999999999 C 592.934 345.7969999999999 590.473 346.84399999999994 589.6089999999999 349.0039999999999 C 589.1639999999999 350.1249999999999 589.2299999999999 351.3199999999999 589.6949999999999 352.3399999999999 z M 922.691 120.504 C 907.926 161.27 879.859 190.582 851.3520000000001 220.348 C 844.2850000000001 227.727 837.1720000000001 235.156 830.3710000000001 242.621 C 828.8050000000001 244.34400000000002 828.9300000000001 247.01600000000002 830.6480000000001 248.586 C 831.5860000000001 249.43800000000002 832.8050000000002 249.78900000000002 833.9730000000002 249.65200000000002 C 835.1410000000002 249.52300000000002 836.3240000000002 249.508 837.4730000000002 249.48800000000003 C 840.9060000000002 249.44500000000002 844.1800000000002 249.38300000000004 846.9770000000002 247.34800000000004 C 850.7620000000002 244.62100000000004 854.5230000000003 241.71500000000003 858.1520000000002 238.63700000000003 C 861.7890000000001 235.55100000000002 865.2890000000001 232.27700000000002 868.5550000000002 228.78100000000003 L 869.0270000000002 228.26200000000003 C 882.8910000000002 213.41000000000003 896.8050000000002 198.50000000000003 909.3440000000002 182.53500000000003 C 914.0000000000001 176.60900000000004 918.2150000000001 170.29700000000003 922.1680000000001 163.83200000000002 C 926.0780000000001 157.44100000000003 929.7420000000001 150.871 933.3440000000002 144.348 C 935.0470000000001 141.25 936.6990000000002 137.633 936.6560000000002 133.246 C 936.6130000000002 128.82000000000002 934.8320000000002 123.96100000000001 929.6720000000001 118.816 C 928.0230000000001 117.176 925.3480000000002 117.184 923.7070000000001 118.836 C 923.2270000000001 119.32 922.8830000000002 119.891 922.6910000000001 120.504 z M 816.594 233.863 C 830.8090000000001 220.09 834.816 203.109 838.8050000000001 186.207 C 839.7620000000001 182.125 840.73 178.039 841.676 174.582 C 847.801 152.164 846.215 130.102 844.676 108.598 L 843.8870000000001 96.9727 C 843.777 95.08200000000001 842.4340000000001 93.5586 840.6800000000001 93.1289 C 835.5740000000001 91.875 832.0590000000001 92.1914 829.5780000000001 93.6211 L 829.2850000000001 93.8086 C 826.4920000000001 95.5586 825.402 98.2969 825.1410000000001 101.648 L 825.1170000000001 101.914 C 824.816 105.746 824.508 109.672 824.988 113.66 C 827.043 130.852 826.48 147.738 824.1880000000001 164.39499999999998 C 821.8830000000002 181.117 817.8010000000002 197.719 812.8590000000002 214.26199999999997 C 811.7700000000001 217.92599999999996 811.0310000000002 221.62899999999996 810.3090000000002 225.31299999999996 L 809.3160000000001 230.15199999999996 C 808.8240000000002 232.42999999999995 810.2770000000002 234.68399999999997 812.5550000000002 235.17599999999996 C 814.0900000000001 235.50799999999995 815.6130000000002 234.95699999999997 816.5940000000002 233.86299999999997 z M 473.301 454.691 C 475.348 454.72999999999996 477.402 454.84799999999996 479.441 454.96099999999996 C 488.883 455.496 498.29299999999995 456.02699999999993 508.863 450.39099999999996 C 510.918 449.29699999999997 511.695 446.74199999999996 510.602 444.688 C 510.066 443.691 509.188 442.99199999999996 508.18399999999997 442.668 C 495.44899999999996 438.488 483.23799999999994 436.117 471.313 434.832 C 459.51599999999996 433.563 447.945 433.348 436.379 433.457 C 432.62100000000004 433.492 429.50800000000004 435.211 426.449 436.906 C 425.313 437.535 424.168 438.164 423.21500000000003 438.582 C 421.17600000000004 439.461 420.19500000000005 441.781 420.922 443.848 C 421.254 444.81600000000003 421.53900000000004 445.91 421.77700000000004 446.836 L 421.891 447.21500000000003 C 422.574 449.855 423.156 451.73800000000006 425.53900000000004 452.86300000000006 L 425.77000000000004 452.96500000000003 C 437.98800000000006 458.711 449.71900000000005 464.184 460.809 469.285 C 472.27700000000004 474.56600000000003 484.055 479.92600000000004 496.23400000000004 485.379 C 498.70700000000005 486.48400000000004 500.961 486.16 504.01200000000006 485.719 L 504.13300000000004 485.695 C 505.34400000000005 485.52299999999997 506.73800000000006 485.324 508.27700000000004 485.223 C 510.44500000000005 485.07800000000003 512.1210000000001 483.32 512.211 481.195 L 512.254 481.328 L 512.316 481.52299999999997 C 513.8050000000001 486.43399999999997 515.551 491.426 517.668 496.227 C 519.836 501.145 522.43 505.90999999999997 525.578 510.22999999999996 C 547.078 539.73 575.8199999999999 558.0229999999999 606.75 564.598 C 638.188 571.281 671.855 565.848 702.438 547.7969999999999 C 714.52 540.6639999999999 726.609 533.1639999999999 737.543 524.137 C 748.629 514.9879999999999 758.461 504.31999999999994 765.77 490.98799999999994 L 765.887 490.75399999999996 C 766.8589999999999 488.914 767.5429999999999 486.938 768.035 484.94499999999994 C 768.523 482.94899999999996 768.832 480.94899999999996 769.055 479.0659999999999 L 769.0699999999999 478.86299999999994 C 769.324 475.9769999999999 767.492 474.61299999999994 764.953 472.76199999999994 C 764.25 472.2459999999999 763.422 471.64799999999997 762.555 470.90199999999993 C 760.938 469.52699999999993 758.574 469.5779999999999 757.0269999999999 470.9409999999999 L 754.8589999999999 472.6799999999999 C 752.7539999999999 474.2849999999999 750.5819999999999 475.9569999999999 748.9219999999999 478.3789999999999 C 739.1049999999999 492.6839999999999 727.492 504.7579999999999 714.3789999999999 514.8089999999999 C 701.2149999999999 524.9099999999999 686.512 533.0079999999998 670.5659999999999 539.3279999999999 C 648.3199999999999 548.1449999999999 621.4139999999999 548.6989999999998 596.031 540.2379999999998 C 572.9019999999999 532.5269999999998 551.039 517.3089999999999 535.0939999999999 494.01599999999985 C 529.938 486.48399999999987 529.0859999999999 477.45299999999986 528.242 468.38299999999987 L 528.074 466.5939999999999 C 527.805 463.7929999999999 527.535 461.67199999999985 527.145 458.4609999999999 L 526.281 451.4339999999999 C 526 449.1209999999999 523.887 447.4729999999999 521.574 447.7499999999999 C 520.3549999999999 447.8979999999999 519.3199999999999 448.5549999999999 518.656 449.4799999999999 C 513.531 455.9919999999999 511.28499999999997 461.78899999999993 510.6329999999999 467.0589999999999 C 510.1169999999999 471.33199999999994 510.6409999999999 475.1479999999999 511.5199999999999 478.6839999999999 C 511.41799999999995 478.52699999999993 511.30499999999995 478.3749999999999 511.17599999999993 478.2299999999999 C 503.3829999999999 468.2379999999999 493.4799999999999 463.8589999999999 483.3089999999999 459.3669999999999 C 479.9729999999999 457.8949999999999 476.59399999999994 456.3979999999999 473.30099999999993 454.6909999999999 z M 191.902 667.281 C 190.527 667.074 189.039 666.699 187.551 666.332 C 183.492 665.328 179.426 664.316 175.33999999999997 665.484 C 169.96499999999997 667.023 165.33999999999997 669.7620000000001 161.63699999999997 673.4960000000001 C 157.93399999999997 677.2300000000001 155.17199999999997 681.9490000000001 153.53099999999998 687.4340000000001 C 152.81599999999997 689.8280000000001 152.44899999999998 692.234 152.09399999999997 694.6170000000001 C 151.63699999999997 697.6450000000001 151.18399999999997 700.6680000000001 150.00399999999996 702.859 C 144.96499999999997 712.207 141.83199999999997 721.484 141.42599999999996 730.914 C 141.01599999999996 740.4689999999999 143.39099999999996 750.059 149.38299999999995 759.871 C 150.52699999999996 761.734 150.31999999999996 765.387 150.11699999999996 768.977 C 150.01199999999997 770.7189999999999 149.90999999999997 772.48 149.95299999999997 774.305 C 150.05499999999998 778.7109999999999 150.03099999999998 783.1129999999999 150.01199999999997 787.375 L 149.98799999999997 792.852 C 149.98799999999997 794.715 151.19099999999997 796.289 152.86299999999997 796.848 C 158.72999999999996 798.8159999999999 162.50399999999996 797.535 165.05899999999997 794.977 L 165.33599999999996 794.672 C 167.40599999999995 792.434 168.17999999999995 789.625 168.76599999999996 787.34 C 170.72999999999996 779.676 172.26199999999997 771.9730000000001 171.94899999999996 764.3090000000001 C 171.62899999999996 756.3240000000001 169.33199999999997 748.488 163.58999999999995 740.9770000000001 C 161.74199999999993 738.57 160.81299999999996 736.0310000000001 160.65599999999995 733.4380000000001 C 160.48399999999995 730.5390000000001 161.25799999999995 727.4300000000001 162.79299999999995 724.2110000000001 C 164.18799999999996 721.2850000000001 165.54699999999994 718.2150000000001 166.79699999999994 714.9840000000002 C 168.04299999999995 711.7850000000002 169.14099999999993 708.5550000000002 169.99999999999994 705.3360000000001 L 170.16399999999993 704.6990000000002 C 174.80099999999993 687.3480000000002 174.85199999999992 687.1720000000001 193.58199999999994 674.9920000000002 C 195.53099999999995 673.7300000000002 196.08599999999993 671.1090000000002 194.81999999999994 669.1600000000002 C 194.13699999999994 668.1050000000002 193.05499999999995 667.4610000000002 191.90199999999993 667.2810000000002 z M 535.516 182.37099999999992 C 542.887 200.64499999999992 557.891 210.23799999999991 572.5469999999999 219.60499999999993 L 578.098 223.18399999999994 C 597.012 235.60499999999993 616.41 247.13299999999995 637.1049999999999 255.50799999999992 C 657.949 263.9409999999999 680.0899999999999 269.1839999999999 704.3359999999999 268.9219999999999 C 706.6639999999999 268.90199999999993 708.531 267.0039999999999 708.5159999999998 264.67599999999993 C 708.4999999999999 262.8829999999999 707.3709999999999 261.36299999999994 705.7889999999999 260.7699999999999 C 700.5309999999998 258.7729999999999 694.5469999999999 256.6169999999999 688.5979999999998 254.47699999999992 C 675.6799999999998 249.8319999999999 662.7539999999998 245.17999999999992 650.4179999999999 239.5159999999999 C 636.781 233.2459999999999 623.4999999999999 225.88699999999992 610.2269999999999 218.5389999999999 C 604.7229999999998 215.4919999999999 599.2229999999998 212.4379999999999 593.7729999999999 209.51199999999992 C 586.9769999999999 205.86299999999991 580.6679999999999 201.08999999999992 574.3439999999999 196.31599999999992 C 564.188 188.6289999999999 553.949 180.8909999999999 540.6719999999999 176.7729999999999 C 538.449 176.0939999999999 536.0819999999999 177.33999999999992 535.4019999999999 179.5629999999999 C 535.1089999999999 180.5229999999999 535.1719999999999 181.5039999999999 535.516 182.3709999999999 z M 837.6479999999999 265.5079999999999 L 837.5079999999999 265.5159999999999 C 825.2539999999999 265.9219999999999 813.012 266.3359999999999 802.4569999999999 259.90199999999993 C 800.5229999999999 258.7269999999999 798.0119999999998 259.28899999999993 796.7619999999998 261.1479999999999 C 789.8199999999998 271.40199999999993 796.1089999999998 275.4649999999999 800.7699999999999 278.4769999999999 L 801.2809999999998 278.80099999999993 C 805.2379999999998 281.41399999999993 809.4299999999998 283.41799999999995 814.0079999999998 285.6019999999999 L 816.4339999999999 286.74999999999994 L 810.4799999999999 300.2699999999999 C 804.8439999999999 313.12499999999994 799.2109999999999 325.98799999999994 792.887 338.54299999999995 C 787.3009999999999 349.64099999999996 782.7969999999999 360.79299999999995 780.871 372.34399999999994 C 778.91 384.10499999999996 779.6129999999999 396.19499999999994 784.531 408.8949999999999 C 785.3829999999999 411.0859999999999 785.7969999999999 413.6909999999999 786.3159999999999 416.8949999999999 C 786.6289999999999 418.8589999999999 786.9839999999999 421.04299999999995 787.387 423.08199999999994 C 787.828 425.36699999999996 790.0509999999999 426.86299999999994 792.3399999999999 426.41799999999995 C 793.5899999999999 426.17199999999997 794.6019999999999 425.39799999999997 795.1909999999999 424.3709999999999 C 798.4879999999999 418.62499999999994 800.0269999999999 413.31299999999993 800.43 408.3159999999999 C 800.828 403.33199999999994 800.0899999999999 398.7299999999999 798.8399999999999 394.3239999999999 C 797.3629999999999 389.1169999999999 797.1639999999999 384.1679999999999 797.887 379.3749999999999 C 798.6289999999999 374.4449999999999 800.3359999999999 369.63299999999987 802.625 364.85199999999986 L 814.832 339.4569999999999 C 823.43 321.5939999999999 832.039 303.71499999999986 839.973 286.68399999999986 L 840.078 286.43399999999986 C 841.766 282.70299999999986 842.461 278.76999999999987 843.137 274.86299999999983 L 843.2929999999999 273.9839999999998 C 862.4839999999999 277.2229999999998 879.8549999999999 274.79299999999984 895.637 268.3519999999998 C 912.43 261.4839999999998 927.3399999999999 250.0859999999998 940.6949999999999 236.1209999999998 L 940.9019999999999 235.8869999999998 C 959.578 216.3279999999998 976.2149999999999 195.19899999999978 992.8159999999999 174.0979999999998 C 998.2499999999999 167.17999999999978 1003.6999999999999 160.25799999999978 1008.67 154.0589999999998 C 1013.27 148.3279999999998 1016.25 141.5899999999998 1019.14 135.0509999999998 L 1019.76 133.64499999999978 C 1020.99 130.87499999999977 1019.89 128.58999999999978 1018.35 125.41799999999978 C 1017.83 124.33199999999978 1017.21 123.05499999999978 1016.64 121.55499999999978 C 1015.81 119.37899999999978 1013.36 118.28099999999978 1011.18 119.10899999999978 C 1010.3199999999999 119.43799999999978 1009.63 120.01599999999978 1009.16 120.73799999999979 L 1001.63 130.32399999999978 C 996.469 136.9449999999998 991.66 143.10199999999978 986.234 149.6519999999998 C 980.289 156.8439999999998 974.645 163.41799999999978 969.0120000000001 169.9799999999998 C 957.754 183.08599999999979 946.4920000000001 196.2029999999998 936.1410000000001 210.1019999999998 C 926.4380000000001 223.1329999999998 915.0630000000001 233.1799999999998 902.2930000000001 240.8549999999998 C 889.4730000000001 248.5629999999998 875.1680000000001 253.9259999999998 859.6680000000001 257.56299999999976 C 858.1370000000002 257.9179999999998 856.4650000000001 258.17599999999976 854.8130000000001 258.42199999999974 L 854.6880000000001 258.44099999999975 C 849.0470000000001 259.28499999999974 843.4220000000001 260.15199999999976 838.8830000000002 264.96899999999977 C 838.4530000000002 265.07799999999975 838.0310000000002 265.25799999999975 837.6480000000001 265.50799999999975 z M 48.5938 405.559 C 56.9531 409.96900000000005 63.2969 406.41400000000004 69.3438 403.023 C 70.4531 402.398 71.5625 401.773 72.6641 401.238 L 72.8789 401.129 C 80.2891 397.53900000000004 87.7344 394.27000000000004 95.3086 391.55100000000004 C 102.953 388.80500000000006 110.793 386.58600000000007 118.953 385.10900000000004 C 132.215 382.70300000000003 145.48000000000002 381.52700000000004 158.738 381.336 C 171.996 381.141 185.324 381.93 198.703 383.434 C 209.102 384.60200000000003 219.195 386.18800000000005 229.273 387.77000000000004 C 235.859 388.80500000000006 242.438 389.84000000000003 248.426 390.68000000000006 C 250.57 390.9770000000001 252.09799999999998 390.3280000000001 254.32 389.3910000000001 C 255.141 389.04300000000006 256.117 388.6290000000001 257.391 388.19900000000007 C 259.594 387.4530000000001 260.77700000000004 385.05100000000004 260.035 382.84800000000007 C 259.836 382.2540000000001 259.512 381.73800000000006 259.10900000000004 381.3090000000001 C 258.40200000000004 380.5470000000001 257.672 379.5780000000001 256.98 378.6720000000001 C 255.008 376.0630000000001 253.246 373.7420000000001 250.11300000000003 373.01200000000006 C 226.93400000000003 367.62500000000006 203.60200000000003 364.01200000000006 180.14500000000004 362.8550000000001 C 156.67600000000004 361.6910000000001 133.09000000000003 362.98800000000006 109.41800000000003 367.3980000000001 C 98.40630000000003 369.4530000000001 87.95700000000004 372.96100000000007 77.89840000000004 377.36300000000006 C 67.88670000000003 381.74600000000004 58.296900000000036 386.98800000000006 48.92970000000004 392.55500000000006 C 46.30080000000004 394.10900000000004 46.269500000000036 396.5160000000001 46.21880000000004 399.2660000000001 C 46.21090000000004 399.8910000000001 46.19530000000004 400.54300000000006 46.11330000000004 401.20700000000005 C 45.894500000000036 403.08600000000007 46.94530000000004 404.82800000000003 48.59380000000004 405.559 z M 49.2383 256.848 L 61.375 252.86700000000002 C 70.3516 249.93 79.3359 246.98800000000003 88.4688 243.89100000000002 C 93.2539 242.26600000000002 97.6914 240.633 102.098 239.01200000000003 C 110.691 235.84800000000004 119.289 232.67200000000003 127.848 230.43400000000003 C 134.98 228.56300000000002 142.18 226.973 149.402 225.61700000000002 C 156.69899999999998 224.25400000000002 164.016 223.11700000000002 171.289 222.168 C 180.934 220.906 190.83599999999998 220.41 200.73399999999998 219.918 L 212.867 219.26600000000002 C 218.105 218.93400000000003 223.398 219.11700000000002 228.66 219.29700000000003 C 237.22299999999998 219.59400000000002 245.74599999999998 219.88700000000003 254.25799999999998 218.13700000000003 C 256.02 217.78100000000003 257.301 216.35900000000004 257.578 214.68400000000003 C 258.371 209.89100000000002 257.17999999999995 206.80500000000004 255.04699999999997 204.66400000000002 C 253.07799999999997 202.68 250.65599999999998 201.92200000000003 248.33999999999997 201.31300000000002 L 248.152 201.26600000000002 C 246.31599999999997 200.78900000000002 244.40599999999998 200.37500000000003 242.46099999999998 200.06600000000003 C 240.44099999999997 199.74200000000002 238.379 199.53100000000003 236.33599999999998 199.49200000000002 C 209.72699999999998 198.98000000000002 183.34799999999998 199.87500000000003 157.469 203.88700000000003 C 131.477 207.92200000000003 106.01599999999999 215.10900000000004 81.44139999999999 227.15200000000004 C 78.44529999999999 228.62100000000004 75.10549999999999 229.89100000000005 71.77729999999998 231.14800000000005 C 61.50779999999998 235.04300000000006 51.23049999999998 238.93800000000005 44.29689999999998 250.70700000000005 C 43.12499999999998 252.71100000000004 43.79689999999998 255.29700000000005 45.80079999999998 256.47300000000007 C 46.87889999999998 257.1050000000001 48.12889999999998 257.2030000000001 49.23829999999998 256.84800000000007 z M 378.914 293.60200000000003 L 378.195 287.77700000000004 C 377.742 283.78900000000004 377.324 280.148 376.301 276.41400000000004 C 373.97999999999996 267.96500000000003 371.633 260.00800000000004 369.293 252.06300000000005 C 365.117 237.88700000000006 360.93 223.70300000000003 357.594 209.32400000000004 L 355.621 201.42600000000004 C 351.926 187.05100000000004 348.22299999999996 172.66400000000004 356.758 160.59800000000004 C 357.801 159.11700000000005 357.758 157.18800000000005 356.78499999999997 155.78100000000003 C 352.941 150.20700000000002 349.078 147.68800000000005 345.29699999999997 147.29700000000003 L 345.14099999999996 147.28500000000003 C 341.08199999999994 146.93000000000004 337.621 148.91800000000003 334.63699999999994 152.22700000000003 C 330.94899999999996 156.32000000000002 328.3589999999999 160.95700000000002 326.8949999999999 165.92200000000003 C 325.42599999999993 170.91000000000003 325.1049999999999 176.23800000000003 325.95699999999994 181.68400000000003 C 329.0349999999999 201.43400000000003 333.62899999999996 220.66800000000003 339.95699999999994 239.25800000000004 C 346.30099999999993 257.90600000000006 354.3979999999999 275.97300000000007 364.47999999999996 293.33200000000005 C 365.71099999999996 295.44900000000007 367.402 296.03100000000006 369.938 296.89500000000004 C 370.871 297.211 371.996 297.598 373.07 298.06300000000005 C 375.199 298.98400000000004 377.68 298.00000000000006 378.605 295.867 C 378.92600000000004 295.129 379.012 294.344 378.91400000000004 293.60200000000003 z M 954.254 370.62100000000004 L 977.316 375.23800000000006 L 984.813 398.48800000000006 C 985.391 400.29300000000006 987.324 401.2850000000001 989.129 400.70700000000005 C 990.133 400.38300000000004 990.883 399.64500000000004 991.254 398.74600000000004 L 1000.45 376.37500000000006 L 1021.0300000000001 378.24600000000004 C 1022.9100000000001 378.41400000000004 1024.5900000000001 377.02700000000004 1024.76 375.13700000000006 C 1024.84 374.20700000000005 1024.54 373.32000000000005 1023.99 372.65200000000004 L 1008.58 353.92600000000004 L 1008.88 334.391 C 1008.9 332.49600000000004 1007.39 330.94100000000003 1005.49 330.918 C 1004.73 330.91 1004.02 331.148 1003.45 331.559 L 990.547 340.78900000000004 L 978.168 325.25000000000006 C 976.988 323.76200000000006 974.82 323.52000000000004 973.336 324.69900000000007 C 972.547 325.32400000000007 972.105 326.2340000000001 972.047 327.1720000000001 L 970.496 351.1760000000001 L 952.848 364.5000000000001 C 951.332 365.6450000000001 951.031 367.80900000000014 952.1759999999999 369.3200000000001 C 952.7069999999999 370.0230000000001 953.453 370.4610000000001 954.2539999999999 370.6210000000001 z M 750.207 570.945 C 752.18 585.7700000000001 760.152 596.1020000000001 768.027 606.301 C 771.379 610.6450000000001 774.7230000000001 614.9770000000001 777.438 619.5200000000001 C 776.293 619.7150000000001 775.102 619.0160000000001 774.086 618.4100000000001 L 772.652 617.5740000000001 C 765.59 613.758 758.8520000000001 609.5780000000001 752.0980000000001 605.3870000000001 L 744.1170000000001 600.4730000000001 C 742.6170000000001 599.57 740.777 599.7030000000001 739.445 600.6800000000001 C 733.676 604.902 734.4920000000001 608.941 737.07 612.4570000000001 C 737.9490000000001 613.6520000000002 739.047 614.6330000000002 740.004 615.4920000000001 L 740.1990000000001 615.676 C 742.6410000000001 617.8520000000001 745.1680000000001 620.043 747.844 622.168 C 750.4920000000001 624.277 753.254 626.293 756.1560000000001 628.121 C 766.297 634.516 775.734 641.684 784.465 649.621 C 793.203 657.574 801.23 666.3009999999999 808.563 675.8009999999999 C 811.309 679.3589999999999 814.758 682.0509999999999 818.68 685.1129999999999 C 820.4409999999999 686.4879999999999 822.3199999999999 687.953 824.352 689.6949999999999 C 826.121 691.203 828.789 690.996 830.3009999999999 689.2299999999999 C 831.1089999999999 688.2849999999999 831.4219999999999 687.074 831.2729999999999 685.93 C 830.5629999999999 678.184 828.3519999999999 669.707 824.516 660.5429999999999 C 820.8439999999999 651.762 815.641 642.2419999999998 808.805 632.0469999999999 L 805.66 627.3519999999999 C 791.336 605.9219999999999 776.957 584.4179999999999 757.137 567.0819999999999 C 755.387 565.5509999999999 752.723 565.7269999999999 751.1909999999999 567.4799999999999 C 750.3279999999999 568.4649999999999 750.0079999999999 569.7459999999999 750.2069999999999 570.9449999999999 z M 378.633 345.8520000000001 L 371.188 331.8320000000001 C 366.387 322.8160000000001 362.012 314.5980000000001 357.902 306.4020000000001 C 349.77 290.2110000000001 342.25 273.7970000000001 336.12899999999996 256.8750000000001 C 330.05899999999997 240.0820000000001 325.37499999999994 222.7970000000001 322.89099999999996 204.7770000000001 C 322.22299999999996 199.9530000000001 321.16799999999995 195.2300000000001 319.93399999999997 190.5980000000001 C 318.719 186.0550000000001 317.29299999999995 181.50000000000009 315.87499999999994 176.9880000000001 L 315.67999999999995 176.4800000000001 C 314.8949999999999 174.6560000000001 313.09799999999996 173.4380000000001 310.96099999999996 172.71500000000012 C 309.08199999999994 172.07800000000012 306.66399999999993 171.71500000000012 304.92999999999995 171.6410000000001 L 304.69499999999994 171.6410000000001 C 302.91399999999993 171.6600000000001 301.04299999999995 172.7380000000001 299.6839999999999 174.1760000000001 C 298.4729999999999 175.4650000000001 297.4299999999999 177.2500000000001 297.16399999999993 178.8010000000001 C 296.8279999999999 180.7270000000001 296.5349999999999 182.7420000000001 296.3979999999999 184.7930000000001 C 296.2579999999999 186.94500000000008 296.2849999999999 189.12500000000009 296.5979999999999 191.23800000000008 L 296.6209999999999 191.3710000000001 C 300.8949999999999 219.8520000000001 308.0739999999999 247.1990000000001 318.51199999999994 273.2300000000001 C 328.96899999999994 299.3160000000001 342.6909999999999 324.08600000000007 360.01599999999996 347.3790000000001 C 361.48799999999994 349.3670000000001 363.484 350.46100000000007 365.34 351.4650000000001 L 365.84 351.7300000000001 C 367.215 352.47300000000007 368.03099999999995 352.4260000000001 370.32399999999996 352.3520000000001 L 375.02699999999993 352.28100000000006 C 377.3589999999999 352.28100000000006 379.2539999999999 350.3910000000001 379.2539999999999 348.05500000000006 C 379.2539999999999 347.24600000000004 379.02699999999993 346.4920000000001 378.6329999999999 345.8520000000001 z M 404.984 447.7030000000001 C 403.75 448.4570000000001 402.414 449.1410000000001 401.215 449.7460000000001 C 398.14099999999996 451.3010000000001 395.67999999999995 452.5550000000001 394.15999999999997 455.2190000000001 L 394.03499999999997 455.4530000000001 C 391.359 460.1480000000001 388.74999999999994 464.9800000000001 386.22299999999996 469.9020000000001 C 383.64099999999996 474.9410000000001 381.15999999999997 480.0550000000001 378.80499999999995 485.1880000000001 C 374.77299999999997 493.9490000000001 370.90199999999993 502.9060000000001 367.03099999999995 511.8480000000001 C 364.29699999999997 518.1640000000001 361.54699999999997 524.5080000000002 358.58199999999994 531.1520000000002 C 356.05499999999995 536.7970000000001 353.34399999999994 542.7380000000002 350.49999999999994 548.8830000000002 L 336.30099999999993 579.2580000000002 C 330.8589999999999 591.0230000000001 325.40599999999995 602.8010000000002 319.2969999999999 613.9920000000002 C 314.7419999999999 622.3440000000002 310.8789999999999 630.8980000000001 307.3949999999999 639.8670000000002 C 303.93799999999993 648.7850000000002 300.8279999999999 658.1130000000002 297.7729999999999 668.0900000000001 C 297.0899999999999 670.3160000000001 298.3399999999999 672.6800000000002 300.56299999999993 673.3590000000002 C 302.07399999999996 673.8200000000002 303.6449999999999 673.3950000000001 304.7149999999999 672.3790000000001 C 315.6049999999999 662.7150000000001 336.8359999999999 624.0660000000001 357.55099999999993 581.2380000000002 C 382.0899999999999 530.4920000000002 406.16799999999995 473.52000000000015 411.3829999999999 452.2270000000002 C 411.9339999999999 449.9610000000002 410.53899999999993 447.6840000000002 408.27699999999993 447.1370000000002 C 407.1019999999999 446.85500000000025 405.9219999999999 447.0940000000002 404.9839999999999 447.7030000000002 z M 59.7539 346.496 C 60.8828 346.02 62.0977 345.57399999999996 63.3164 345.145 C 66.4375 344.03499999999997 69.5508 342.918 72.3594 340.777 C 87.85159999999999 328.969 104.91799999999999 321.76599999999996 122.734 316.97999999999996 C 140.76999999999998 312.145 159.652 309.758 178.50799999999998 307.58599999999996 C 193.664 305.84399999999994 208.867 305.45699999999994 224.01999999999998 306.03899999999993 C 239.21099999999998 306.6329999999999 254.45299999999997 308.20699999999994 269.633 310.3589999999999 C 271 310.5469999999999 272.313 310.05499999999995 273.219 309.1409999999999 C 275.164 307.2189999999999 276.39799999999997 305.3479999999999 276.984 303.5659999999999 C 277.477 302.05099999999993 277.53499999999997 300.5899999999999 277.21099999999996 299.2149999999999 L 277.078 298.7579999999999 C 276.703 297.5349999999999 276.03099999999995 296.4339999999999 275.09799999999996 295.4799999999999 C 273.71899999999994 294.06299999999993 271.71899999999994 292.93799999999993 269.25399999999996 292.1329999999999 L 267.64099999999996 291.59399999999994 C 262.61699999999996 289.9409999999999 257.47299999999996 288.2459999999999 252.01199999999997 287.8279999999999 C 226.92199999999997 285.9099999999999 201.92999999999998 285.7659999999999 177.12899999999996 288.0469999999999 C 152.30899999999997 290.33199999999994 127.72699999999996 295.0589999999999 103.50399999999996 302.8869999999999 C 93.49999999999996 306.12099999999987 84.51949999999997 310.98399999999987 76.42189999999997 317.2849999999999 C 68.37109999999997 323.53899999999993 61.16409999999996 331.2269999999999 54.64839999999997 340.1409999999999 C 53.27339999999997 342.0199999999999 53.67969999999997 344.66399999999993 55.55859999999997 346.03899999999993 C 56.81639999999997 346.96099999999996 58.42189999999997 347.08599999999996 59.75389999999997 346.4959999999999 z M 532.434 124.82 C 532.6129999999999 127.797 532.5939999999999 130.14499999999998 532.578 132.035 C 532.539 136.395 532.516 139.078 534.586 141.441 C 538.336 145.734 542.207 149.887 546.125 153.918 C 550.066 157.977 554.098 161.941 558.148 165.844 C 573.438 180.59 589.676 194.148 606.832 206.316 C 623.48 218.121 641.035 228.641 659.48 237.688 C 676.207 245.891 694.1560000000001 251.355 712.051 256.801 C 717.4960000000001 258.457 722.9530000000001 260.121 728.6990000000001 261.965 C 731.7500000000001 262.953 735.008 263.03499999999997 738.32 262.58599999999996 C 741.379 262.17599999999993 744.469 261.31299999999993 747.4960000000001 260.31999999999994 C 749.7110000000001 259.6019999999999 750.9220000000001 257.21899999999994 750.2030000000001 254.99999999999994 C 749.7460000000001 253.58999999999995 748.609 252.58599999999996 747.277 252.22999999999993 C 728.07 245.58599999999993 709.051 238.68799999999993 690.3480000000001 230.62899999999993 C 671.7930000000001 222.63699999999994 653.7700000000001 213.56299999999993 636.5820000000001 202.55499999999992 C 606.8010000000002 183.48799999999991 580.9020000000002 159.60199999999992 552.6450000000001 133.5469999999999 L 539.48 121.453 C 537.77 119.88300000000001 535.105 120 533.539 121.711 C 532.734 122.594 532.375 123.719 532.434 124.82 z M 506.93 749.461 C 507.711 749.379 508.45300000000003 749.367 509.113 749.355 C 511.879 749.313 514.117 749.246 515.82 746.977 C 528.984 729.285 541.816 711.977 554.1880000000001 695.211 C 566.2580000000002 678.844 578.8950000000001 661.621 592.2700000000001 643.266 C 594.6480000000001 640.0079999999999 596.1720000000001 636.4219999999999 597.6450000000001 632.949 C 598.2660000000001 631.5039999999999 598.8790000000001 630.0659999999999 599.4840000000002 628.813 C 600.4020000000002 626.906 599.7580000000002 624.648 598.0700000000002 623.4879999999999 C 587.7150000000001 616.3979999999999 583.5120000000002 622.3789999999999 580.1090000000002 627.2499999999999 L 579.6520000000002 627.8829999999999 C 568.1250000000001 644.0819999999999 555.8910000000002 661.5899999999999 543.0000000000001 680.0429999999999 C 544.6170000000001 676.2069999999999 546.2460000000001 672.4649999999999 547.8590000000002 668.9569999999999 C 549.7970000000001 664.7499999999999 551.8280000000002 660.6169999999998 553.9840000000002 656.6639999999999 C 555.7810000000002 653.3669999999998 558.0350000000002 650.0779999999999 560.2810000000002 646.8009999999999 C 562.7930000000001 643.1249999999999 565.3200000000002 639.4379999999999 567.4800000000001 635.305 L 568.9650000000001 632.5939999999999 C 572.8590000000002 625.6249999999999 577.0740000000002 618.0859999999999 572.8160000000001 605.8629999999999 C 572.0510000000002 603.6719999999999 569.6450000000001 602.5079999999999 567.4530000000001 603.2729999999999 C 566.6880000000001 603.5389999999999 566.0470000000001 604.0079999999999 565.57 604.598 C 542.7460000000001 632.055 529.836 662.602 517.0820000000001 692.785 C 513.9610000000001 700.18 510.8400000000001 707.563 507.5630000000001 714.906 L 505.9060000000001 718.5 C 501.8830000000001 727.047 497.7190000000001 736.086 502.39100000000013 746.957 C 503.17200000000014 748.766 505.0700000000001 749.754 506.9300000000001 749.461 z M 280.406 111.488 C 273.34000000000003 107.68 266.156 105.301 258.934 103.813 C 251.84400000000002 102.348 244.70700000000002 101.742 237.586 101.45700000000001 C 217.74200000000002 100.66000000000001 198.02 100.71100000000001 178.508 102.77000000000001 C 158.84 104.84800000000001 139.395 108.96100000000001 120.27700000000002 116.27700000000002 C 107.47300000000001 121.17600000000002 94.15630000000002 124.96500000000002 80.8555 128.75400000000002 C 71.8438 131.31600000000003 62.824200000000005 133.883 53.75000000000001 136.859 C 49.183600000000006 138.35500000000002 44.730500000000006 140.262 40.3828 142.371 C 36.101600000000005 144.44500000000002 31.914100000000005 146.75400000000002 27.824200000000005 149.09 C 24.757800000000003 150.848 22.695300000000003 153.496 20.265600000000006 156.625 C 19.222700000000007 157.977 18.085900000000006 159.434 16.839800000000007 160.848 C 15.300800000000008 162.586 15.457000000000008 165.25400000000002 17.203100000000006 166.793 C 17.691400000000005 167.227 18.257800000000007 167.52700000000002 18.855500000000006 167.691 C 27.246100000000006 170.074 31.933600000000006 166.883 36.2578 163.938 C 37.707 162.95299999999997 39.105500000000006 161.99599999999998 40.324200000000005 161.65599999999998 C 43.246100000000006 160.83999999999997 46.0234 159.72699999999998 48.777300000000004 158.62099999999998 C 51.242200000000004 157.63299999999998 53.726600000000005 156.63699999999997 56.08200000000001 155.95299999999997 L 82.45700000000001 148.19899999999998 C 106.613 141.047 130.78500000000003 133.88699999999997 155.336 127.66399999999999 C 171.949 123.45299999999999 188.71900000000002 121.71099999999998 205.531 121.57 C 222.469 121.434 239.52 122.895 256.547 125.05499999999999 L 256.91400000000004 125.10199999999999 C 262.47700000000003 125.80899999999998 268.13700000000006 126.51599999999999 273.80100000000004 126.15199999999999 C 277.129 125.93799999999999 278.59800000000007 123.30099999999999 280.285 120.24999999999999 C 280.793 119.35499999999999 281.336 118.37099999999998 281.875 117.59399999999998 C 283.195 115.68399999999998 282.711 113.05099999999997 280.801 111.73399999999998 z M 288 367.23 L 285.824 369.617 C 283.887 371.66400000000004 281.97700000000003 373.742 280.879 376.56300000000005 C 278.422 382.88300000000004 276.105 389.047 273.97700000000003 394.98800000000006 C 271.75800000000004 401.18800000000005 269.63700000000006 407.42600000000004 267.656 413.6720000000001 C 264.559 423.4570000000001 261.379 433.1480000000001 257.60200000000003 442.3400000000001 C 253.83600000000004 451.5080000000001 249.38300000000004 460.4260000000001 243.70300000000003 468.8440000000001 C 237.99200000000002 477.3010000000001 233.34000000000003 486.2340000000001 229.68800000000005 495.5740000000001 C 226.04300000000003 504.89100000000013 223.37500000000006 514.6450000000001 221.60900000000004 524.7770000000002 C 218.95300000000003 540.0660000000001 215.91800000000003 555.4020000000002 212.89500000000004 570.7300000000001 C 209.78100000000003 586.5200000000001 206.66400000000004 602.3130000000001 203.91000000000003 618.2620000000002 C 202.848 624.3910000000002 202.41000000000003 630.6600000000002 202.61700000000002 637.0860000000001 C 202.81600000000003 643.4650000000001 203.66400000000002 649.9920000000001 205.156 656.6560000000002 C 205.656 658.9260000000002 207.91 660.3590000000002 210.18 659.8630000000002 C 211.566 659.5590000000002 212.64100000000002 658.5980000000002 213.156 657.3790000000001 C 213.691 656.1410000000001 214.371 654.8400000000001 215.043 653.5430000000001 L 215.15200000000002 653.3090000000001 C 216.85500000000002 650.0350000000001 218.53900000000002 646.738 218.80100000000002 642.8710000000001 C 220.984 610.113 228.371 578.1680000000001 235.76600000000002 546.2150000000001 L 239.31600000000003 530.7420000000002 C 241.46100000000004 521.2660000000002 244.00800000000004 511.98800000000017 247.38700000000003 503.08200000000016 C 250.72300000000004 494.2810000000002 254.89100000000002 485.8360000000002 260.32000000000005 477.91000000000014 C 266.09800000000007 469.47700000000015 270.785 460.58200000000016 274.71100000000007 451.3750000000001 C 278.58600000000007 442.3010000000001 281.7460000000001 432.8320000000001 284.54300000000006 423.14100000000013 C 287.81300000000005 411.78500000000014 291.56300000000005 400.14500000000015 295.2970000000001 388.52000000000015 L 300.1210000000001 373.43400000000014 C 300.7500000000001 371.41000000000014 299.7770000000001 369.26600000000013 297.9220000000001 368.37900000000013 L 293.3200000000001 365.9880000000001 C 291.4570000000001 365.0270000000001 289.2030000000001 365.5940000000001 288.0000000000001 367.23000000000013 z M 672.047 658.082 L 671.57 656.297 C 668.551 645.023 665.5310000000001 633.7620000000001 656.238 624.566 C 654.6210000000001 622.965 652.023 622.938 650.375 624.488 C 649.637 625.176 648.895 625.7850000000001 648.258 626.293 L 648.1370000000001 626.395 C 645.711 628.371 643.9570000000001 629.8439999999999 644.691 632.887 C 649.625 652.8589999999999 654.5 672.4839999999999 659.1800000000001 691.1129999999999 C 663.922 709.9449999999999 668.844 729.223 674.0630000000001 749.242 C 675.2070000000001 753.625 677.1990000000001 757.5 679.6090000000002 762.188 C 680.7540000000001 764.406 682.0080000000002 766.832 683.3980000000001 769.813 C 684.3830000000002 771.93 686.8980000000001 772.8439999999999 689.0120000000002 771.859 C 689.8630000000002 771.465 690.5200000000002 770.8240000000001 690.9340000000002 770.0590000000001 C 691.9880000000002 768.4800000000001 693.0900000000001 767.0630000000001 694.0350000000002 765.8360000000001 C 696.3670000000002 762.8200000000002 698.0590000000002 760.6330000000002 698.2850000000002 757.5200000000001 C 698.5820000000002 753.3750000000001 698.8910000000002 749.1450000000001 698.9300000000002 744.633 C 698.9730000000002 740.1840000000001 698.7230000000002 735.7270000000001 697.9220000000001 731.375 C 694.3630000000002 712.207 693.8360000000001 692.742 693.3200000000002 673.281 C 693.1480000000001 666.742 692.9690000000002 660.1909999999999 692.6950000000002 653.91 C 692.5080000000002 649.6089999999999 692.0660000000001 645.305 691.5000000000001 641.043 C 690.9100000000001 636.645 690.2110000000001 632.516 689.5040000000001 628.469 C 689.0160000000001 625.6840000000001 687.2270000000001 623.84 685.6330000000002 622.191 L 684.6290000000001 621.105 C 683.6990000000002 619.891 682.2380000000002 619.316 680.8160000000001 619.4730000000001 C 676.0000000000001 620.0160000000001 673.4490000000002 622.094 672.0860000000001 624.859 C 670.8790000000001 627.293 670.9140000000001 629.7850000000001 671.0000000000001 632.1410000000001 z M 11.625 69.7773 C 21.449199999999998 62.2266 31.8867 56.550799999999995 42.793 52.23049999999999 C 53.8086 47.86719999999999 65.26169999999999 44.88279999999999 77.0313 42.74609999999999 C 78.3438 42.456999999999994 79.4805 42.218799999999995 80.73440000000001 41.71479999999999 C 105.39500000000001 32.51559999999999 130.621 28.32419999999999 156.09 26.77729999999999 C 181.836 25.21879999999999 207.895 26.34769999999999 233.918 27.73049999999999 C 246.262 28.39449999999999 258.531 30.10549999999999 270.664 32.64839999999999 C 282.813 35.19529999999999 294.84 38.58979999999999 306.691 42.60549999999999 C 312.039 44.41019999999999 317.621 45.84769999999999 322.945 47.210899999999995 L 329.602 48.956999999999994 C 331.332 49.425799999999995 333.10499999999996 48.74609999999999 334.109 47.38669999999999 C 335.04699999999997 46.10549999999999 335.75399999999996 44.86329999999999 336.24199999999996 43.66799999999999 C 337.30899999999997 41.093799999999995 337.33199999999994 38.816399999999994 336.70699999999994 36.87109999999999 C 336.06299999999993 34.86329999999999 334.7849999999999 33.35159999999999 333.2849999999999 32.24999999999999 C 332.4299999999999 31.624999999999993 331.4959999999999 31.124999999999993 330.59399999999994 30.753899999999994 L 328.5469999999999 29.914099999999994 C 317.902 25.5313 307.18 21.1094 296.008 17.9961 C 271.031 11.0156 245.738 7.3125 220.348 5.91016 C 194.973 4.50781 169.531 5.39453 144.234 7.57422 C 125.348 9.20703 106.855 13.3203 88.6563 18.6602 C 70.4922 23.9922 52.8008 30.4805 35.2656 36.9492 C 28.8555 39.3164 22.668 42.5117 17.4102 46.9961 C 12.0352 51.5703 7.67578 57.4453 5.07031 65.0703 C 4.32422 67.27340000000001 5.50781 69.67580000000001 7.71094 70.418 C 9.08984 70.8828 10.5469 70.5938 11.625 69.77730000000001 z M 280.805 151.539 C 278.969 153.273 277.367 154.58999999999997 276.031 155.69099999999997 C 272.969 158.20299999999997 270.914 159.902 269.863 162.76199999999997 C 266.793 171.12499999999997 264.703 179.65599999999998 263.941 188.30499999999998 C 263.176 197.00799999999998 263.75 205.832 265.996 214.719 C 270.695 233.332 275.691 251.94899999999998 281.67199999999997 270.258 C 287.66799999999995 288.62899999999996 294.645 306.62899999999996 303.26599999999996 323.89099999999996 C 312.426 342.23799999999994 324.551 358.996 336.62499999999994 375.67599999999993 C 340.12899999999996 380.5199999999999 343.63699999999994 385.3589999999999 346.6909999999999 389.69899999999996 C 351.0079999999999 395.83199999999994 355.6409999999999 401.828 360.43799999999993 407.69899999999996 C 365.17599999999993 413.51599999999996 370.09399999999994 419.227 375.03099999999995 424.87499999999994 C 382.26199999999994 433.14099999999996 383.2579999999999 433.40599999999995 398.40599999999995 437.41399999999993 L 402.41399999999993 438.4769999999999 C 404.6599999999999 439.06999999999994 406.97299999999996 437.7229999999999 407.5659999999999 435.4729999999999 C 407.96899999999994 433.9529999999999 407.4799999999999 432.4019999999999 406.4339999999999 431.3789999999999 C 384.5199999999999 408.7149999999999 367.56299999999993 383.6169999999999 350.7499999999999 358.7379999999999 C 346.19099999999986 351.9799999999999 341.5859999999999 345.1719999999999 336.07799999999986 337.2849999999999 C 322.6759999999999 318.09399999999994 314.46099999999984 296.5859999999999 306.22699999999986 275.0199999999999 L 302.39099999999985 265.08199999999994 C 299.41799999999984 257.41799999999995 297.26599999999985 249.25799999999992 295.11699999999985 241.10499999999993 C 293.71099999999984 235.75399999999993 292.29699999999985 230.38299999999992 290.64099999999985 225.11299999999994 C 288.0269999999999 216.78499999999994 286.08999999999986 208.48799999999994 285.43399999999986 200.15999999999994 C 284.77299999999985 191.95299999999995 285.35899999999987 183.66799999999995 287.74599999999987 175.24599999999992 C 288.82399999999984 171.44099999999992 288.6249999999999 167.66799999999992 288.37099999999987 162.70699999999994 C 288.25399999999985 160.39799999999994 288.11699999999985 157.78099999999995 288.11699999999985 154.43399999999994 C 288.11699999999985 152.09799999999993 286.22299999999984 150.20299999999995 283.88699999999983 150.20299999999995 C 282.6759999999998 150.20299999999995 281.5779999999998 150.71499999999995 280.80499999999984 151.53899999999996" stroke-linecap="round" />
</g>
</g>
</g>
<g transform="matrix(1.9211538461538462 0 0 1.9211538461538462 632.0325975057035 734.1170327980053)" id="text-logo"  >
<g style=""  paint-order="stroke"   >
		<g transform="matrix(1 0 0 1 0 0)" id="text-logo-path-0"  >
<path style="stroke: none; stroke-width: 0; stroke-dasharray: none; stroke-linecap: butt; stroke-dashoffset: 0; stroke-linejoin: miter; stroke-miterlimit: 4; fill: rgb(17,64,131); fill-rule: nonzero; opacity: 1;"  paint-order="stroke"  transform=" translate(-200.88433306691832, 15.745794097668767)" d="M 21.35 -27.54 C 13.67 -30.74 11.42 -32.84 11.76 -36.65 C 11.97 -38.76 13.12 -40.66 15.1 -42.02 C 17.07 -43.45 19.72 -44.06 22.37 -43.79 C 26.18 -43.45 29.51 -41.28 30.87 -38.22 C 31.28 -37.26 32.44 -36.86 33.39 -37.26 C 34.34 -37.67 34.75 -38.83 34.34 -39.78 C 32.44 -44.13 28.02 -47.12 22.71 -47.6 C 19.18 -47.94 15.64 -47.06 12.92 -45.15 C 10.06 -43.11 8.3 -40.26 7.96 -37.06 C 7.28 -29.85 13.26 -26.79 19.92 -24 L 19.99 -24 C 29.1 -20.67 32.91 -16.93 32.44 -11.76 C 32.16 -8.91 30.6 -6.32 28.02 -4.56 C 25.3 -2.65 21.83 -1.77 18.22 -2.11 C 13.74 -2.52 9.79 -4.76 7.68 -8.16 C 7.28 -8.7 6.66 -8.98 6.05 -8.98 C 5.71 -8.98 5.37 -8.91 5.03 -8.7 C 4.15 -8.16 3.88 -6.94 4.49 -6.05 C 7.75 -0.88 13.8 1.77 19.79 1.77 C 27.61 1.77 35.43 -3.2 36.24 -11.42 C 37.13 -20.67 28.15 -25.09 21.35 -27.54 Z M 60.66 -30.46 C 51.75 -30.46 44.47 -23.19 44.47 -14.28 C 44.47 -5.37 51.75 1.9 60.66 1.9 C 65.62 1.9 70.04 -0.34 73.03 -3.88 L 73.03 0 C 73.03 1.09 73.92 1.9 74.94 1.9 C 76.02 1.9 76.84 1.09 76.84 0 L 76.84 -14.28 C 76.84 -23.19 69.56 -30.46 60.66 -30.46 Z M 48.28 -14.28 C 48.28 -21.08 53.86 -26.66 60.66 -26.66 C 67.46 -26.66 73.03 -21.08 73.03 -14.28 C 73.03 -7.48 67.46 -1.9 60.66 -1.9 C 53.86 -1.9 48.28 -7.48 48.28 -14.28 Z M 106.62 -44.95 C 104.65 -46.65 102.2 -47.6 99.62 -47.6 C 93.84 -47.6 89.15 -42.91 89.15 -37.13 L 89.15 -30.46 L 85.34 -30.46 C 84.32 -30.46 83.44 -29.65 83.44 -28.56 C 83.44 -27.54 84.32 -26.66 85.34 -26.66 L 89.15 -26.66 L 89.15 0 C 89.15 1.09 90.03 1.9 91.05 1.9 C 92.14 1.9 92.96 1.09 92.96 0 L 92.96 -26.66 L 99.62 -26.66 C 100.71 -26.66 101.52 -27.54 101.52 -28.56 C 101.52 -29.65 100.71 -30.46 99.62 -30.46 L 92.96 -30.46 L 92.96 -37.13 C 92.96 -40.8 95.95 -43.79 99.62 -43.79 C 101.25 -43.79 102.82 -43.18 104.04 -42.09 C 104.45 -41.75 104.86 -41.62 105.33 -41.62 C 105.88 -41.62 106.42 -41.82 106.76 -42.23 C 107.44 -43.04 107.37 -44.27 106.62 -44.95 Z M 127.91 -30.46 C 119.14 -30.46 112.2 -23.39 112.2 -14.28 C 112.2 -5.37 119.48 1.9 128.38 1.9 C 132.74 1.9 136.75 0.2 139.81 -2.86 C 140.56 -3.6 140.56 -4.76 139.81 -5.51 C 139.47 -5.92 138.99 -6.05 138.52 -6.05 C 138.04 -6.05 137.56 -5.92 137.16 -5.51 C 134.78 -3.2 131.72 -1.9 128.38 -1.9 C 122.2 -1.9 117.1 -6.46 116.14 -12.38 L 140.9 -12.38 C 141.98 -12.38 142.8 -13.26 142.8 -14.28 C 142.8 -23.66 136.54 -30.46 127.91 -30.46 Z M 116.14 -16.18 C 117.03 -22.17 121.86 -26.66 127.91 -26.66 C 133.76 -26.66 138.18 -22.37 138.92 -16.18 Z M 168.3 -27.54 C 160.62 -30.74 158.37 -32.84 158.71 -36.65 C 158.92 -38.76 160.07 -40.66 162.04 -42.02 C 164.02 -43.45 166.67 -44.06 169.32 -43.79 C 173.13 -43.45 176.46 -41.28 177.82 -38.22 C 178.23 -37.26 179.38 -36.86 180.34 -37.26 C 181.29 -37.67 181.7 -38.83 181.29 -39.78 C 179.38 -44.13 174.96 -47.12 169.66 -47.6 C 166.12 -47.94 162.59 -47.06 159.87 -45.15 C 157.01 -43.11 155.24 -40.26 154.9 -37.06 C 154.22 -29.85 160.21 -26.79 166.87 -24 L 166.94 -24 C 176.05 -20.67 179.86 -16.93 179.38 -11.76 C 179.11 -8.91 177.55 -6.32 174.96 -4.56 C 172.24 -2.65 168.78 -1.77 165.17 -2.11 C 160.68 -2.52 156.74 -4.76 154.63 -8.16 C 154.22 -8.7 153.61 -8.98 153 -8.98 C 152.66 -8.98 152.32 -8.91 151.98 -8.7 C 151.1 -8.16 150.82 -6.94 151.44 -6.05 C 154.7 -0.88 160.75 1.77 166.74 1.77 C 174.56 1.77 182.38 -3.2 183.19 -11.42 C 184.08 -20.67 175.1 -25.09 168.3 -27.54 Z M 213.04 -3.47 C 212.7 -3.88 212.16 -4.08 211.62 -4.08 C 211.14 -4.08 210.73 -3.94 210.32 -3.6 C 209.1 -2.52 207.54 -1.9 205.9 -1.9 C 202.23 -1.9 199.24 -4.9 199.24 -8.57 L 199.24 -26.66 L 205.9 -26.66 C 206.99 -26.66 207.81 -27.54 207.81 -28.56 C 207.81 -29.65 206.99 -30.46 205.9 -30.46 L 199.24 -30.46 L 199.24 -45.7 C 199.24 -46.78 198.42 -47.6 197.34 -47.6 C 196.32 -47.6 195.43 -46.78 195.43 -45.7 L 195.43 -30.46 L 191.62 -30.46 C 190.6 -30.46 189.72 -29.65 189.72 -28.56 C 189.72 -27.54 190.6 -26.66 191.62 -26.66 L 195.43 -26.66 L 195.43 -8.57 C 195.43 -2.79 200.12 1.9 205.9 1.9 C 208.49 1.9 210.94 0.95 212.91 -0.75 C 213.66 -1.5 213.72 -2.65 213.04 -3.47 Z M 236.64 -30.46 C 227.73 -30.46 220.46 -23.19 220.46 -14.28 C 220.46 -5.37 227.73 1.9 236.64 1.9 C 241.6 1.9 246.02 -0.34 249.02 -3.88 L 249.02 0 C 249.02 1.09 249.9 1.9 250.92 1.9 C 252.01 1.9 252.82 1.09 252.82 0 L 252.82 -14.28 C 252.82 -23.19 245.55 -30.46 236.64 -30.46 Z M 224.26 -14.28 C 224.26 -21.08 229.84 -26.66 236.64 -26.66 C 243.44 -26.66 249.02 -21.08 249.02 -14.28 C 249.02 -7.48 243.44 -1.9 236.64 -1.9 C 229.84 -1.9 224.26 -7.48 224.26 -14.28 Z M 286.48 -30.33 C 285.53 -30.74 284.44 -30.26 284.04 -29.24 L 274.38 -5.1 L 264.72 -29.24 C 264.32 -30.26 263.23 -30.74 262.28 -30.33 C 261.26 -29.92 260.78 -28.83 261.19 -27.88 L 272.34 0 L 266.9 13.6 C 266.49 14.55 266.97 15.64 267.99 16.05 C 268.19 16.12 268.46 16.18 268.67 16.18 C 269.42 16.18 270.16 15.71 270.44 14.96 L 287.57 -27.88 C 287.98 -28.83 287.5 -29.92 286.48 -30.33 Z M 355.1 -47.6 C 354.08 -47.6 353.19 -46.78 353.19 -45.7 L 353.19 -6.66 L 328.17 -46.72 C 327.69 -47.4 326.81 -47.74 325.99 -47.53 C 325.18 -47.33 324.63 -46.58 324.63 -45.7 L 324.63 0 C 324.63 1.09 325.52 1.9 326.54 1.9 C 327.62 1.9 328.44 1.09 328.44 0 L 328.44 -39.03 L 353.46 1.02 C 353.87 1.56 354.48 1.9 355.1 1.9 C 355.3 1.9 355.44 1.9 355.64 1.84 C 356.46 1.63 357 0.88 357 0 L 357 -45.7 C 357 -46.78 356.18 -47.6 355.1 -47.6 Z M 396.64 -47.4 C 396.37 -47.53 396.03 -47.6 395.76 -47.6 C 395.01 -47.6 394.4 -47.26 394.06 -46.65 L 381.41 -23.94 L 368.83 -46.65 C 368.42 -47.26 367.81 -47.6 367.06 -47.6 C 366.79 -47.6 366.45 -47.53 366.18 -47.4 C 365.3 -46.85 364.96 -45.7 365.5 -44.74 L 379.51 -19.52 L 379.51 0 C 379.51 1.09 380.39 1.9 381.41 1.9 C 382.5 1.9 383.32 1.09 383.32 0 L 383.32 -19.52 L 397.39 -44.74 C 397.87 -45.7 397.53 -46.85 396.64 -47.4 Z" stroke-linecap="round" />
</g>
</g>
</g>
<g transform="matrix(1.9211538461538462 0 0 1.9211538461538462 636.4343384615385 843.7259846067082)" id="tagline-fe32b67f-85b4-4ed4-88e7-f96fea61924e-logo"  >
<g style=""  paint-order="stroke"   >
		<g transform="matrix(1 0 0 1 0 0)" id="tagline-fe32b67f-85b4-4ed4-88e7-f96fea61924e-logo-path-0"  >
<path style="stroke: none; stroke-width: 0; stroke-dasharray: none; stroke-linecap: butt; stroke-dashoffset: 0; stroke-linejoin: miter; stroke-miterlimit: 4; fill: rgb(17,64,131); fill-rule: nonzero; opacity: 1;"  paint-order="stroke"  transform=" translate(-125.89000000000001, 19.490000000000002)" d="M 27.03 -1.62 L 6.73 -1.62 L 6.73 -17.86 L 19.72 -17.86 C 20.65 -17.86 21.34 -18.62 21.34 -19.49 C 21.34 -20.42 20.65 -21.11 19.72 -21.11 L 6.73 -21.11 L 6.73 -37.35 L 27.03 -37.35 C 27.96 -37.35 28.65 -38.11 28.65 -38.98 C 28.65 -39.9 27.96 -40.6 27.03 -40.6 L 5.1 -40.6 C 4.23 -40.6 3.48 -39.9 3.48 -38.98 L 3.48 0 C 3.48 0.93 4.23 1.62 5.1 1.62 L 27.03 1.62 C 27.96 1.62 28.65 0.93 28.65 0 C 28.65 -0.87 27.96 -1.62 27.03 -1.62 Z M 46.46 -15.31 C 41.18 -16.88 40.19 -17.92 40.25 -19.31 C 40.37 -21.34 43.15 -22.91 46.4 -22.74 C 48.78 -22.68 50.92 -21.63 51.85 -20.18 C 52.14 -19.72 52.66 -19.43 53.24 -19.43 C 53.48 -19.43 53.77 -19.49 54.06 -19.66 C 54.81 -20.13 55.04 -21.11 54.58 -21.87 C 53.13 -24.24 50.05 -25.87 46.57 -25.98 C 41.41 -26.22 37.18 -23.37 37 -19.49 C 36.83 -15.14 40.95 -13.57 45.53 -12.18 L 45.59 -12.18 C 53.01 -10.21 53.77 -8 53.71 -6.55 C 53.65 -5.28 52.84 -4.06 51.39 -3.13 C 49.76 -2.09 47.62 -1.57 45.36 -1.68 C 42.51 -1.8 39.96 -2.84 38.51 -4.52 C 38.22 -4.93 37.76 -5.1 37.29 -5.1 C 36.89 -5.1 36.54 -4.99 36.25 -4.7 C 35.55 -4.06 35.5 -3.07 36.08 -2.38 C 38.51 0.35 42.4 1.57 45.94 1.57 C 50.63 1.57 56.67 -0.93 56.96 -6.38 C 57.25 -12.41 49.42 -14.5 46.46 -15.31 Z M 83.35 -2.96 C 83.06 -3.31 82.59 -3.48 82.13 -3.48 C 81.72 -3.48 81.37 -3.36 81.03 -3.07 C 79.98 -2.15 78.65 -1.62 77.26 -1.62 C 74.12 -1.62 71.57 -4.18 71.57 -7.31 L 71.57 -22.74 L 77.26 -22.74 C 78.18 -22.74 78.88 -23.49 78.88 -24.36 C 78.88 -25.29 78.18 -25.98 77.26 -25.98 L 71.57 -25.98 L 71.57 -38.98 C 71.57 -39.9 70.88 -40.6 69.95 -40.6 C 69.08 -40.6 68.32 -39.9 68.32 -38.98 L 68.32 -25.98 L 65.08 -25.98 C 64.21 -25.98 63.45 -25.29 63.45 -24.36 C 63.45 -23.49 64.21 -22.74 65.08 -22.74 L 68.32 -22.74 L 68.32 -7.31 C 68.32 -2.38 72.33 1.62 77.26 1.62 C 79.46 1.62 81.55 0.81 83.23 -0.64 C 83.87 -1.28 83.93 -2.26 83.35 -2.96 Z M 92.68 -3.83 C 91.64 -3.83 90.77 -2.96 90.77 -1.91 C 90.77 -0.87 91.64 0 92.68 0 C 93.73 0 94.6 -0.87 94.6 -1.91 C 94.6 -2.96 93.73 -3.83 92.68 -3.83 Z M 149.76 -1.62 L 131.6 -1.62 C 135.26 -5.34 141.52 -11.66 143.96 -14.21 C 148.02 -18.27 151.38 -21.75 151.38 -27.96 C 151.38 -34.92 145.7 -40.6 138.74 -40.6 C 131.78 -40.6 126.09 -34.92 126.09 -27.96 C 126.09 -27.09 126.85 -26.33 127.72 -26.33 C 128.64 -26.33 129.34 -27.09 129.34 -27.96 C 129.34 -33.12 133.57 -37.35 138.74 -37.35 C 143.9 -37.35 148.13 -33.12 148.13 -27.96 C 148.13 -23.14 145.87 -20.82 142.68 -17.57 L 141.64 -16.47 C 138.1 -12.82 126.67 -1.28 126.56 -1.16 C 126.09 -0.7 125.98 0 126.21 0.64 C 126.5 1.22 127.08 1.62 127.72 1.62 L 149.76 1.62 C 150.68 1.62 151.38 0.93 151.38 0 C 151.38 -0.93 150.68 -1.62 149.76 -1.62 Z M 171.04 -40.6 C 164.08 -40.6 158.4 -34.92 158.4 -27.96 L 158.4 -11.02 C 158.4 -4.06 164.08 1.62 171.04 1.62 C 178 1.62 183.69 -4.06 183.69 -11.02 L 183.69 -27.96 C 183.69 -34.92 178 -40.6 171.04 -40.6 Z M 161.65 -11.02 L 161.65 -27.96 C 161.65 -33.12 165.88 -37.35 171.04 -37.35 C 176.2 -37.35 180.44 -33.12 180.44 -27.96 L 180.44 -11.02 C 180.44 -5.86 176.2 -1.62 171.04 -1.62 C 165.88 -1.62 161.65 -5.86 161.65 -11.02 Z M 214.08 -1.62 L 195.92 -1.62 C 199.58 -5.34 205.84 -11.66 208.28 -14.21 C 212.34 -18.27 215.7 -21.75 215.7 -27.96 C 215.7 -34.92 210.02 -40.6 203.06 -40.6 C 196.1 -40.6 190.41 -34.92 190.41 -27.96 C 190.41 -27.09 191.17 -26.33 192.04 -26.33 C 192.97 -26.33 193.66 -27.09 193.66 -27.96 C 193.66 -33.12 197.9 -37.35 203.06 -37.35 C 208.22 -37.35 212.45 -33.12 212.45 -27.96 C 212.45 -23.14 210.19 -20.82 207 -17.57 L 205.96 -16.47 C 202.42 -12.82 190.99 -1.28 190.88 -1.16 C 190.41 -0.7 190.3 0 190.53 0.64 C 190.82 1.22 191.4 1.62 192.04 1.62 L 214.08 1.62 C 215.01 1.62 215.7 0.93 215.7 0 C 215.7 -0.93 215.01 -1.62 214.08 -1.62 Z M 246.67 -13.8 L 242.38 -13.8 L 242.38 -38.98 C 242.38 -39.67 241.92 -40.31 241.22 -40.54 C 240.58 -40.72 239.83 -40.48 239.42 -39.9 L 220.57 -13.11 C 220.23 -12.59 220.17 -11.95 220.46 -11.43 C 220.75 -10.85 221.33 -10.56 221.91 -10.56 L 239.13 -10.56 L 239.13 0 C 239.13 0.93 239.83 1.62 240.76 1.62 C 241.63 1.62 242.38 0.93 242.38 0 L 242.38 -10.56 L 246.67 -10.56 C 247.6 -10.56 248.3 -11.25 248.3 -12.18 C 248.3 -13.05 247.6 -13.8 246.67 -13.8 Z M 225.04 -13.8 L 239.13 -33.81 L 239.13 -13.8 Z" stroke-linecap="round" />
</g>
</g>
</g>
</svg>